<svg width="136" height="89" viewBox="0 0 136 89" fill="none" xmlns="http://www.w3.org/2000/svg">
<path d="M1.344 39.56C1.344 36.808 1.856 34.392 2.88 32.312C3.936 30.232 5.36 28.632 7.152 27.512C8.944 26.392 10.944 25.832 13.152 25.832C15.04 25.832 16.688 26.216 18.096 26.984C19.536 27.752 20.64 28.76 21.408 30.008V26.216H29.616V53H21.408V49.208C20.608 50.456 19.488 51.464 18.048 52.232C16.64 53 14.992 53.384 13.104 53.384C10.928 53.384 8.944 52.824 7.152 51.704C5.36 50.552 3.936 48.936 2.88 46.856C1.856 44.744 1.344 42.312 1.344 39.56ZM21.408 39.608C21.408 37.56 20.832 35.944 19.68 34.76C18.56 33.576 17.184 32.984 15.552 32.984C13.92 32.984 12.528 33.576 11.376 34.76C10.256 35.912 9.696 37.512 9.696 39.56C9.696 41.608 10.256 43.24 11.376 44.456C12.528 45.64 13.92 46.232 15.552 46.232C17.184 46.232 18.56 45.64 19.68 44.456C20.832 43.272 21.408 41.656 21.408 39.608ZM43.2341 46.232H54.8501V53H34.0661V46.472L45.2021 32.984H34.1621V26.216H54.6101V32.744L43.2341 46.232ZM75.7346 53L67.5746 41.768V53H59.3666V17.48H67.5746V37.112L75.6866 26.216H85.8146L74.6786 39.656L85.9106 53H75.7346ZM87.4065 39.56C87.4065 36.808 87.9185 34.392 88.9425 32.312C89.9985 30.232 91.4225 28.632 93.2145 27.512C95.0065 26.392 97.0065 25.832 99.2145 25.832C101.103 25.832 102.751 26.216 104.159 26.984C105.599 27.752 106.703 28.76 107.471 30.008V26.216H115.679V53H107.471V49.208C106.671 50.456 105.551 51.464 104.111 52.232C102.703 53 101.055 53.384 99.1665 53.384C96.9905 53.384 95.0065 52.824 93.2145 51.704C91.4225 50.552 89.9985 48.936 88.9425 46.856C87.9185 44.744 87.4065 42.312 87.4065 39.56ZM107.471 39.608C107.471 37.56 106.895 35.944 105.743 34.76C104.623 33.576 103.247 32.984 101.615 32.984C99.9825 32.984 98.5905 33.576 97.4385 34.76C96.3185 35.912 95.7585 37.512 95.7585 39.56C95.7585 41.608 96.3185 43.24 97.4385 44.456C98.5905 45.64 99.9825 46.232 101.615 46.232C103.247 46.232 104.623 45.64 105.743 44.456C106.895 43.272 107.471 41.656 107.471 39.608ZM125.457 53.384C124.017 53.384 122.833 52.968 121.905 52.136C121.009 51.272 120.561 50.216 120.561 48.968C120.561 47.688 121.009 46.616 121.905 45.752C122.833 44.888 124.017 44.456 125.457 44.456C126.865 44.456 128.017 44.888 128.913 45.752C129.841 46.616 130.305 47.688 130.305 48.968C130.305 50.216 129.841 51.272 128.913 52.136C128.017 52.968 126.865 53.384 125.457 53.384Z" fill="white"/>
<path d="M97.6075 79.216C96.5675 79.216 95.6315 79.032 94.7995 78.664C93.9835 78.28 93.3355 77.768 92.8555 77.128C92.3755 76.472 92.1195 75.744 92.0875 74.944H94.9195C94.9675 75.504 95.2315 75.976 95.7115 76.36C96.2075 76.728 96.8235 76.912 97.5595 76.912C98.3275 76.912 98.9195 76.768 99.3355 76.48C99.7675 76.176 99.9835 75.792 99.9835 75.328C99.9835 74.832 99.7435 74.464 99.2635 74.224C98.7995 73.984 98.0555 73.72 97.0315 73.432C96.0395 73.16 95.2315 72.896 94.6075 72.64C93.9835 72.384 93.4395 71.992 92.9755 71.464C92.5275 70.936 92.3035 70.24 92.3035 69.376C92.3035 68.672 92.5115 68.032 92.9275 67.456C93.3435 66.864 93.9355 66.4 94.7035 66.064C95.4875 65.728 96.3835 65.56 97.3915 65.56C98.8955 65.56 100.104 65.944 101.016 66.712C101.944 67.464 102.44 68.496 102.504 69.808H99.7675C99.7195 69.216 99.4795 68.744 99.0475 68.392C98.6155 68.04 98.0315 67.864 97.2955 67.864C96.5755 67.864 96.0235 68 95.6395 68.272C95.2555 68.544 95.0635 68.904 95.0635 69.352C95.0635 69.704 95.1915 70 95.4475 70.24C95.7035 70.48 96.0155 70.672 96.3835 70.816C96.7515 70.944 97.2955 71.112 98.0155 71.32C98.9755 71.576 99.7595 71.84 100.368 72.112C100.992 72.368 101.528 72.752 101.976 73.264C102.424 73.776 102.656 74.456 102.672 75.304C102.672 76.056 102.464 76.728 102.048 77.32C101.632 77.912 101.04 78.376 100.272 78.712C99.5195 79.048 98.6315 79.216 97.6075 79.216ZM107.02 64.024C106.524 64.024 106.108 63.856 105.772 63.52C105.436 63.184 105.268 62.768 105.268 62.272C105.268 61.776 105.436 61.36 105.772 61.024C106.108 60.688 106.524 60.52 107.02 60.52C107.5 60.52 107.908 60.688 108.244 61.024C108.58 61.36 108.748 61.776 108.748 62.272C108.748 62.768 108.58 63.184 108.244 63.52C107.908 63.856 107.5 64.024 107.02 64.024ZM108.364 65.776V79H105.628V65.776H108.364ZM115.148 68.008V75.328C115.148 75.824 115.26 76.184 115.484 76.408C115.724 76.616 116.124 76.72 116.684 76.72H118.364V79H116.204C114.972 79 114.028 78.712 113.372 78.136C112.716 77.56 112.388 76.624 112.388 75.328V68.008H110.828V65.776H112.388V62.488H115.148V65.776H118.364V68.008H115.148ZM133.006 72.064C133.006 72.56 132.974 73.008 132.91 73.408H122.806C122.886 74.464 123.278 75.312 123.982 75.952C124.686 76.592 125.55 76.912 126.574 76.912C128.046 76.912 129.086 76.296 129.694 75.064H132.646C132.246 76.28 131.518 77.28 130.462 78.064C129.422 78.832 128.126 79.216 126.574 79.216C125.31 79.216 124.174 78.936 123.166 78.376C122.174 77.8 121.39 77 120.814 75.976C120.254 74.936 119.974 73.736 119.974 72.376C119.974 71.016 120.246 69.824 120.79 68.8C121.35 67.76 122.126 66.96 123.118 66.4C124.126 65.84 125.278 65.56 126.574 65.56C127.822 65.56 128.934 65.832 129.91 66.376C130.886 66.92 131.646 67.688 132.19 68.68C132.734 69.656 133.006 70.784 133.006 72.064ZM130.15 71.2C130.134 70.192 129.774 69.384 129.07 68.776C128.366 68.168 127.494 67.864 126.454 67.864C125.51 67.864 124.702 68.168 124.03 68.776C123.358 69.368 122.958 70.176 122.83 71.2H130.15Z" fill="white"/>
</svg>
