<svg width="450" height="436" viewBox="0 0 450 436" fill="none" xmlns="http://www.w3.org/2000/svg">
<path d="M369.87 343.08H405.03V331.89H369.87V343.08Z" fill="#EBEBEB"/>
<path d="M156.18 190.25H191.34V179.06H156.18V190.25Z" fill="#EBEBEB"/>
<path d="M389.48 357.19L407.18 356.9L415.93 356.78L424.64 356.73L424.18 357.19V346L424.68 346.5L407.1 346.43L398.31 346.35L389.52 346.24L389.76 346L389.48 357.19ZM389.48 357.19L389.25 346V345.77H389.49L398.28 345.66L407.07 345.58L424.65 345.51H425.15V346.01V357.2V357.66H424.7L415.83 357.61L407 357.49L389.48 357.19Z" fill="#EBEBEB"/>
<path d="M222.3 407.55L240 407.26L248.75 407.14H257.46L257 407.59V396.4L257.5 396.9L239.92 396.84L231.13 396.75L222.34 396.64L222.58 396.4L222.3 407.55ZM222.3 407.55L222.06 396.36V396.13H222.3L231.09 396.02L239.88 395.93L257.46 395.86H257.96V396.36L257.91 407.55V408.01H257.46H248.59L239.76 407.89L222.3 407.55Z" fill="#EBEBEB"/>
<path d="M241.91 421.66L259.61 421.37L268.36 421.25H277.07L276.61 421.7V410.51L277.11 411.01L259.53 410.95L250.74 410.86L241.95 410.75L242.19 410.51L241.91 421.66ZM241.91 421.66L241.67 410.47V410.28H241.91L250.7 410.17L259.49 410.08L277.07 410.01H277.57V410.51V421.7V422.16H277.12H268.25L259.42 422.04L241.91 421.66Z" fill="#EBEBEB"/>
<path d="M261.44 407.56H296.6V396.37H261.44V407.56Z" fill="#EBEBEB"/>
<path d="M10.96 357.19H46.12V346H10.96V357.19Z" fill="#EBEBEB"/>
<path d="M30.57 25.41L65.73 25.41V14.22L30.57 14.22V25.41Z" fill="#EBEBEB"/>
<path d="M10.96 39.51L28.66 39.22L37.41 39.1H46.12L45.66 39.55V28.36L46.16 28.86L28.58 28.79L19.8 28.67L11.01 28.56L11.2 28.28L10.96 39.51ZM10.96 39.51L10.72 28.28V28.05H10.96L19.8 27.98L28.59 27.89L46.17 27.82H46.67V28.28V39.47V39.93H46.22H37.35L28.52 39.81L10.96 39.51Z" fill="#EBEBEB"/>
<path d="M369.87 25.4L387.57 25.11L396.32 24.99H405.03L404.57 25.44V14.25L405.07 14.75L387.49 14.68L378.7 14.6L369.91 14.49L370.15 14.25L369.87 25.4ZM369.87 25.4L369.63 14.21V13.98H369.87L378.66 13.87L387.45 13.78L405.03 13.71H405.53V14.21L405.48 25.4V25.86H405.03H396.16L387.33 25.74L369.87 25.4Z" fill="#EBEBEB"/>
<path d="M418.99 354.38C407.99 369.31 396.48 386.63 393.68 405.38C393.674 405.442 393.692 405.505 393.729 405.555C393.767 405.605 393.822 405.639 393.884 405.65C393.945 405.661 394.009 405.649 394.062 405.616C394.115 405.582 394.153 405.53 394.17 405.47C395.436 400.361 397.063 395.348 399.04 390.47C406.28 388.47 413.39 386.84 417.2 379.65C421.08 372.26 420.59 362.65 419.85 354.57C419.8 354.12 419.21 354.1 418.99 354.38Z" fill="#A6AEBB"/>
<path d="M399.15 390.28C404.1 379.17 410.45 368.02 418.53 358.89C418.59 358.82 418.67 358.89 418.62 358.97C413.33 365.48 409.31 372.56 405.39 379.77C409.04 376.07 413.04 372.77 416.49 368.82C416.505 368.811 416.523 368.807 416.541 368.809C416.559 368.811 416.576 368.819 416.588 368.832C416.601 368.844 416.609 368.861 416.611 368.879C416.613 368.897 416.609 368.915 416.6 368.93C413.17 373.05 409.42 377.53 404.95 380.57C403.75 382.79 402.54 385.007 401.32 387.22L402.24 386.75C402.29 386.75 402.34 386.81 402.24 386.84C401.9 387.01 401.57 387.19 401.24 387.34C400.66 388.39 400.09 389.44 399.49 390.49C399.37 390.75 399.04 390.55 399.15 390.28Z" fill="#263238"/>
<path d="M402.8 386.44C405.76 384.775 408.588 382.886 411.26 380.79C411.33 380.73 411.44 380.79 411.36 380.89C408.777 383.125 405.945 385.054 402.92 386.64C402.8 386.71 402.7 386.51 402.8 386.44Z" fill="#263238"/>
<path d="M392.41 402.56C392.41 402.613 392.431 402.664 392.469 402.701C392.506 402.739 392.557 402.76 392.61 402.76C392.663 402.76 392.714 402.739 392.751 402.701C392.789 402.664 392.81 402.613 392.81 402.56C392.87 396.4 392.81 390.21 392.91 384.02C394.49 380.83 397.91 379.02 400.23 376.51C401.926 374.645 403.402 372.591 404.63 370.39C407.467 365.129 409.202 359.344 409.73 353.39C410.38 346.8 407.88 325.05 405.1 325.8C403.66 326.19 398.99 336.97 397.76 340.53C395.749 346.404 394.28 352.449 393.37 358.59C391.12 373.07 391.3 387.96 392.41 402.56Z" fill="#A6AEBB"/>
<path d="M392.36 375.97C392.7 368.17 394.46 360.3 396.1 352.73C397.87 344.59 399.94 336.91 404.1 329.65C404.116 329.622 404.142 329.602 404.173 329.593C404.204 329.585 404.237 329.589 404.265 329.605C404.293 329.621 404.313 329.647 404.322 329.678C404.33 329.709 404.326 329.742 404.31 329.77C401.515 335.422 399.352 341.364 397.86 347.49C398.14 347.05 398.48 346.63 398.77 346.22C398.89 346.06 399.16 346.22 399.04 346.38C398.666 347.038 398.227 347.658 397.73 348.23H397.68C396.24 354.05 395.2 360.01 394.31 365.95C394.38 365.88 394.44 365.8 394.51 365.72C394.58 365.64 394.63 365.72 394.6 365.79C394.57 365.86 394.37 366.19 394.25 366.38C393.8 369.38 393.39 372.38 392.97 375.38C398.34 370.79 402.97 365.38 405.51 358.72C405.51 358.72 405.58 358.72 405.56 358.72C403.03 365.64 399.03 371.78 392.88 375.98L392.55 378.39C392.55 378.55 392.26 378.51 392.26 378.39C392.26 377.68 392.26 376.96 392.32 376.25C392.299 376.231 392.283 376.208 392.274 376.182C392.264 376.155 392.261 376.127 392.265 376.099C392.269 376.072 392.28 376.045 392.296 376.023C392.313 376 392.335 375.982 392.36 375.97Z" fill="#263238"/>
<path d="M394.89 364.67C399.075 358.724 402.726 352.42 405.8 345.83C405.8 345.76 405.97 345.83 405.94 345.89C403.41 352.61 399.86 359.43 395.07 364.83C395.047 364.841 395.021 364.846 394.995 364.842C394.97 364.839 394.946 364.828 394.926 364.811C394.907 364.793 394.893 364.771 394.887 364.746C394.88 364.721 394.881 364.694 394.89 364.67Z" fill="#263238"/>
<path d="M400.35 344.28C402.05 341.28 403.84 338.34 405.44 335.28C405.44 335.19 405.6 335.28 405.57 335.35C404.243 338.552 402.566 341.597 400.57 344.43C400.5 344.63 400.25 344.49 400.35 344.28Z" fill="#263238"/>
<path d="M388.24 384.74C388.152 388.824 387.669 392.889 386.8 396.88C386.86 397.32 386.92 397.75 386.99 398.21C388.244 393.798 388.972 389.253 389.16 384.67C389.197 384.606 389.216 384.534 389.216 384.46C389.216 384.386 389.197 384.314 389.16 384.25C389.332 378.103 388.877 371.954 387.8 365.9C385.89 354.58 381.72 343.71 373.8 335.22C373.735 335.164 373.658 335.123 373.575 335.102C373.492 335.08 373.405 335.078 373.321 335.096C373.237 335.113 373.158 335.149 373.09 335.202C373.022 335.255 372.967 335.323 372.93 335.4C369.74 343.5 370.85 353.17 373.57 361.26C375.04 365.64 377.149 369.778 379.83 373.54C382.58 377.35 386.04 380.58 388.24 384.74Z" fill="#A6AEBB"/>
<path d="M374.8 339.01C382.29 351.16 387.5 365.57 388.14 379.92C388.14 380.17 387.72 380.24 387.68 379.98C387.51 378.69 387.31 377.41 387.1 376.14C384 373.14 380.82 370.05 378.61 366.34C378.61 366.28 378.66 366.2 378.71 366.26C381.283 369.418 384.037 372.423 386.96 375.26C386.43 372.09 385.79 368.96 385.04 365.89L384.45 365.19C384.32 365.04 384.53 364.82 384.67 364.97L384.85 365.17C383.794 360.953 382.488 356.802 380.94 352.74C379.03 350.47 376.94 348.5 375.51 345.74C375.51 345.68 375.57 345.63 375.61 345.69C376.73 347.25 377.81 348.83 379.07 350.28C379.58 350.86 380.13 351.4 380.65 351.97C378.929 347.563 376.88 343.291 374.52 339.19C374.506 339.153 374.505 339.113 374.517 339.076C374.529 339.039 374.554 339.007 374.587 338.986C374.62 338.965 374.659 338.956 374.698 338.96C374.737 338.965 374.773 338.982 374.8 339.01Z" fill="#263238"/>
<path d="M376.29 354C378.71 357.26 381.46 360.36 383.71 363.73C383.78 363.83 383.64 363.92 383.56 363.85C380.685 360.917 378.186 357.639 376.12 354.09C376.06 353.99 376.22 353.9 376.29 354Z" fill="#263238"/>
<path d="M384.05 364.48L384.16 364.59C384.23 364.66 384.16 364.77 384.04 364.7L383.94 364.59C383.931 364.575 383.927 364.557 383.929 364.539C383.931 364.521 383.939 364.504 383.952 364.492C383.964 364.479 383.981 364.471 383.999 364.469C384.017 364.467 384.035 364.471 384.05 364.48Z" fill="#263238"/>
<path d="M363.05 362.37C363.934 369.153 366.663 375.562 370.94 380.9C372.707 382.993 374.89 384.695 377.35 385.9C380.12 387.27 383.03 388.85 385.9 389.98C387.253 393.455 388.258 397.056 388.9 400.73L389.17 399.78C387.33 383.95 377.09 370.43 363.99 361.78C363.891 361.724 363.779 361.695 363.665 361.698C363.551 361.7 363.44 361.734 363.344 361.794C363.247 361.855 363.169 361.94 363.117 362.041C363.066 362.143 363.042 362.256 363.05 362.37Z" fill="#A6AEBB"/>
<path d="M367.57 367.04C367.48 366.96 367.57 366.8 367.7 366.87C374.901 372.218 380.64 379.292 384.39 387.44C384.49 387.66 384.19 387.85 384.07 387.63C383.46 386.56 382.84 385.53 382.21 384.51C379.21 383.95 376.39 381.84 374.21 379.84C374.15 379.79 374.21 379.7 374.3 379.76C375.444 380.799 376.714 381.689 378.08 382.41C379.3 383.03 380.61 383.41 381.88 383.92C380.77 382.16 379.62 380.47 378.41 378.84C375.175 377.61 372.142 375.904 369.41 373.78C369.32 373.72 369.41 373.58 369.49 373.64C372.192 375.275 374.979 376.764 377.84 378.1C376.017 375.693 374.05 373.399 371.95 371.23C370.95 370.69 369.9 370.15 368.95 369.58C368.93 369.571 368.915 369.554 368.907 369.533C368.9 369.513 368.901 369.49 368.91 369.47C368.919 369.45 368.936 369.435 368.957 369.427C368.977 369.42 369 369.421 369.02 369.43C369.836 369.716 370.615 370.099 371.34 370.57C370.09 369.37 368.88 368.19 367.57 367.04Z" fill="#263238"/>
<path d="M367.85 372.51C368.027 372.615 368.194 372.736 368.35 372.87C368.4 372.87 368.35 372.97 368.29 372.95C368.106 372.864 367.929 372.763 367.76 372.65C367.741 372.638 367.728 372.619 367.724 372.598C367.719 372.576 367.723 372.554 367.735 372.535C367.747 372.516 367.766 372.503 367.787 372.499C367.809 372.494 367.831 372.498 367.85 372.51Z" fill="#263238"/>
<path d="M409.65 435H373.75L376.65 402.32L377.29 395.11H406.11L406.75 402.32L409.65 435Z" fill="#00112D"/>
<path d="M406.75 402.32H376.65L377.29 395.11H406.11L406.75 402.32Z" fill="#263238"/>
<path d="M407.83 390.07H375.57V397.2H407.83V390.07Z" fill="#00112D"/>
<path d="M15.24 435L65.88 434.76L116.52 434.67L217.8 434.5L319.08 434.67L369.72 434.76L420.36 435L369.72 435.25L319.08 435.34L217.8 435.5L116.52 435.34L65.88 435.25L15.24 435Z" fill="#263238"/>
<path d="M401.93 39.2H33.66V272.18H401.93V39.2Z" fill="#F9F9FB"/>
<path d="M401.94 272.18L33.66 272.34H33.51V272.18L33.42 39.18V38.93H33.66L401.94 39.08H402.03V39.18L401.94 272.18ZM401.94 272.18L401.84 39.18L401.94 39.28L33.66 39.43L33.91 39.18L33.8 272.18L33.64 272.03L401.94 272.18Z" fill="#00112D"/>
<path d="M401.93 39.2H33.66V48.17H401.93V39.2Z" fill="#00112D"/>
<path d="M42.31 43.68C42.312 44.0384 42.2075 44.3893 42.0098 44.6883C41.8121 44.9873 41.5301 45.2208 41.1996 45.3593C40.869 45.4979 40.5048 45.5351 40.153 45.4664C39.8013 45.3977 39.4778 45.2261 39.2237 44.9734C38.9696 44.7207 38.7962 44.3982 38.7255 44.0468C38.6549 43.6954 38.6901 43.331 38.8268 42.9997C38.9635 42.6683 39.1955 42.3851 39.4934 42.1857C39.7912 41.9864 40.1416 41.88 40.5 41.88C40.9783 41.88 41.4372 42.0693 41.7763 42.4066C42.1155 42.7439 42.3073 43.2017 42.31 43.68Z" fill="#747473"/>
<path d="M49.69 43.68C49.692 44.0384 49.5875 44.3893 49.3898 44.6883C49.1921 44.9873 48.9102 45.2208 48.5796 45.3593C48.249 45.4979 47.8848 45.5351 47.533 45.4664C47.1813 45.3977 46.8578 45.2261 46.6037 44.9734C46.3496 44.7207 46.1762 44.3982 46.1055 44.0468C46.0349 43.6954 46.0701 43.331 46.2068 42.9997C46.3435 42.6683 46.5755 42.3851 46.8734 42.1857C47.1712 41.9864 47.5216 41.88 47.88 41.88C48.3583 41.88 48.8172 42.0693 49.1563 42.4066C49.4955 42.7439 49.6873 43.2017 49.69 43.68Z" fill="#F9F9FB"/>
<path d="M57.06 43.68C57.062 44.0384 56.9575 44.3893 56.7598 44.6883C56.5621 44.9873 56.2801 45.2208 55.9496 45.3593C55.619 45.4979 55.2548 45.5351 54.903 45.4664C54.5513 45.3977 54.2278 45.2261 53.9737 44.9734C53.7196 44.7207 53.5462 44.3982 53.4755 44.0468C53.4049 43.6954 53.4401 43.331 53.5768 42.9997C53.7135 42.6683 53.9455 42.3851 54.2434 42.1857C54.5412 41.9864 54.8916 41.88 55.25 41.88C55.7283 41.88 56.1872 42.0693 56.5263 42.4066C56.8655 42.7439 57.0573 43.2017 57.06 43.68Z" fill="#343434"/>
<path d="M70.26 144.48C78.81 144.32 87.37 144.24 95.92 144.18L121.58 144.08L147.24 144.18L160.07 144.29L172.9 144.48L160.07 144.68L147.24 144.79L121.58 144.88L95.92 144.79C87.37 144.72 78.8 144.65 70.26 144.48Z" fill="#DBDBDB"/>
<path d="M70.26 152.63C78.81 152.46 87.37 152.38 95.92 152.32L121.58 152.23L147.24 152.32L160.07 152.43L172.9 152.63L160.07 152.82L147.24 152.93L121.58 153.02L95.92 152.93C87.37 152.87 78.8 152.79 70.26 152.63Z" fill="#DBDBDB"/>
<path d="M70.26 160.77C78.81 160.6 87.37 160.53 95.92 160.46L121.58 160.37L147.24 160.46L160.07 160.57L172.9 160.77L160.07 160.97L147.24 161.08L121.58 161.17L95.92 161.08C87.37 161.01 78.8 160.93 70.26 160.77Z" fill="#DBDBDB"/>
<path d="M70.26 177.06C78.81 176.89 87.37 176.81 95.92 176.75L121.58 176.66L147.24 176.75L160.07 176.86L172.9 177.06L160.07 177.25L147.24 177.36L121.58 177.45L95.92 177.36C87.37 177.28 78.8 177.22 70.26 177.06Z" fill="#DBDBDB"/>
<path d="M70.26 185.2C78.81 185.03 87.37 184.96 95.92 184.89L121.58 184.8L147.24 184.89L160.07 185L172.9 185.2L160.07 185.39L147.24 185.51L121.58 185.6L95.92 185.5C87.37 185.44 78.8 185.36 70.26 185.2Z" fill="#DBDBDB"/>
<path d="M70.26 193.34C75.46 193.18 80.67 193.1 85.87 193.04C91.07 192.98 96.29 192.98 101.49 192.94C106.69 192.9 111.9 192.94 117.11 193.04L124.91 193.15C127.52 193.21 130.12 193.25 132.72 193.34C130.12 193.43 127.52 193.47 124.91 193.54L117.11 193.65C111.9 193.71 106.7 193.71 101.49 193.74C96.28 193.77 91.08 193.74 85.87 193.65C80.66 193.56 75.46 193.51 70.26 193.34Z" fill="#DBDBDB"/>
<path d="M117.48 210.11H70.26V223.1H117.48V210.11Z" fill="#747473"/>
<path d="M76.33 218.6V214.6H76.72V218.28H79.02V218.63L76.33 218.6Z" fill="#F9F9FB"/>
<path d="M82.27 218.28V218.63H79.59V214.63H82.22V214.98H79.99V216.41H81.93V216.74H79.99V218.28H82.27Z" fill="#F9F9FB"/>
<path d="M84.24 214.62H84.57L86.22 218.62H85.8L85.28 217.37H83.5L82.99 218.62H82.56L84.24 214.62ZM85.24 217.04L84.44 215.04L83.63 217.04H85.24Z" fill="#F9F9FB"/>
<path d="M86.8 218.6V214.6H88.49C88.6536 214.595 88.8157 214.633 88.96 214.71C89.2432 214.853 89.4639 215.095 89.58 215.39C89.6315 215.538 89.6585 215.693 89.66 215.85C89.6604 215.989 89.6402 216.127 89.6 216.26C89.5605 216.389 89.4997 216.511 89.42 216.62C89.3452 216.727 89.2501 216.819 89.14 216.89C89.031 216.963 88.9087 217.014 88.78 217.04L89.78 218.58H89.34L88.4 217.11H87.23V218.58L86.8 218.6ZM87.2 216.78H88.5C88.6076 216.783 88.7142 216.759 88.81 216.71C88.9061 216.657 88.991 216.586 89.06 216.5C89.1255 216.412 89.1762 216.314 89.21 216.21C89.2496 216.101 89.2699 215.986 89.27 215.87C89.271 215.751 89.2507 215.632 89.21 215.52C89.1657 215.414 89.105 215.317 89.03 215.23C88.9566 215.15 88.8682 215.086 88.77 215.04C88.6742 214.991 88.5676 214.967 88.46 214.97H87.2V216.78Z" fill="#F9F9FB"/>
<path d="M90.85 215.35V218.6H90.45V214.6H90.8L93.43 217.91V214.6H93.8V218.6H93.46L90.85 215.35Z" fill="#F9F9FB"/>
<path d="M99.73 218.6V215.33L98.28 217.86H98.05L96.6 215.33V218.6H96.21V214.6H96.61L98.16 217.32L99.73 214.6H100.13V218.6H99.73Z" fill="#F9F9FB"/>
<path d="M102.73 218.62C102.467 218.627 102.205 218.568 101.97 218.45C101.743 218.344 101.542 218.19 101.38 218C101.209 217.811 101.076 217.59 100.99 217.35C100.903 217.113 100.858 216.862 100.86 216.61C100.849 216.087 101.043 215.581 101.4 215.2C101.565 215.015 101.765 214.865 101.99 214.76C102.219 214.644 102.473 214.586 102.73 214.59C102.994 214.587 103.255 214.649 103.49 214.77C103.717 214.88 103.918 215.037 104.08 215.23C104.245 215.422 104.374 215.642 104.46 215.88C104.548 216.113 104.593 216.361 104.59 216.61C104.589 216.873 104.542 217.134 104.45 217.38C104.354 217.612 104.222 217.828 104.06 218.02C103.89 218.2 103.691 218.349 103.47 218.46C103.238 218.568 102.986 218.623 102.73 218.62ZM101.25 216.62C101.252 216.831 101.289 217.041 101.36 217.24C101.426 217.434 101.527 217.614 101.66 217.77C101.788 217.926 101.948 218.052 102.13 218.14C102.315 218.238 102.521 218.286 102.73 218.28C102.941 218.28 103.15 218.232 103.34 218.14C103.517 218.041 103.673 217.908 103.8 217.75C103.933 217.594 104.034 217.414 104.1 217.22C104.162 217.026 104.196 216.824 104.2 216.62C104.199 216.405 104.162 216.192 104.09 215.99C104.023 215.795 103.917 215.615 103.78 215.46C103.652 215.31 103.496 215.188 103.32 215.1C103.139 215.004 102.935 214.955 102.73 214.96C102.515 214.959 102.303 215.007 102.11 215.1C101.753 215.296 101.484 215.622 101.36 216.01C101.29 216.202 101.253 216.405 101.25 216.61V216.62Z" fill="#F9F9FB"/>
<path d="M105.33 218.6V214.6H107.01C107.177 214.596 107.342 214.634 107.49 214.71C107.628 214.783 107.753 214.877 107.86 214.99C107.961 215.11 108.042 215.245 108.1 215.39C108.159 215.536 108.19 215.692 108.19 215.85C108.192 215.99 108.168 216.129 108.12 216.26C108.084 216.389 108.026 216.51 107.95 216.62C107.875 216.727 107.78 216.819 107.67 216.89C107.559 216.966 107.433 217.017 107.3 217.04L108.3 218.58H107.8L106.86 217.11H105.68V218.58L105.33 218.6ZM105.72 216.78H107.02C107.131 216.784 107.241 216.76 107.34 216.71C107.435 216.659 107.517 216.588 107.58 216.5C107.649 216.413 107.703 216.315 107.74 216.21C107.78 216.101 107.8 215.986 107.8 215.87C107.802 215.75 107.778 215.63 107.73 215.52C107.689 215.415 107.632 215.317 107.56 215.23C107.487 215.15 107.398 215.086 107.3 215.04C107.204 214.992 107.097 214.968 106.99 214.97H105.72V216.78Z" fill="#F9F9FB"/>
<path d="M111.66 218.28V218.63H108.99V214.63H111.61V214.98H109.38V216.41H111.33V216.74H109.38V218.28H111.66Z" fill="#F9F9FB"/>
<path d="M77.8 123.8V108.8C77.8298 108.445 77.9918 108.115 78.2539 107.874C78.516 107.633 78.859 107.499 79.215 107.499C79.571 107.499 79.914 107.633 80.1761 107.874C80.4381 108.115 80.6001 108.445 80.63 108.8V114.91H87.24V108.8C87.2373 108.615 87.2716 108.431 87.3409 108.26C87.4102 108.088 87.5131 107.932 87.6435 107.801C87.7739 107.669 87.9292 107.565 88.1003 107.495C88.2714 107.424 88.4549 107.389 88.64 107.39C88.8264 107.387 89.0114 107.422 89.1842 107.492C89.3571 107.561 89.5142 107.665 89.6465 107.796C89.7787 107.928 89.8834 108.084 89.9544 108.257C90.0255 108.429 90.0613 108.614 90.06 108.8V123.8C90.0613 123.986 90.0255 124.171 89.9544 124.343C89.8834 124.516 89.7787 124.672 89.6465 124.804C89.5142 124.935 89.3571 125.039 89.1842 125.108C89.0114 125.178 88.8264 125.213 88.64 125.21C88.4549 125.211 88.2714 125.176 88.1003 125.105C87.9292 125.035 87.7739 124.931 87.6435 124.799C87.5131 124.668 87.4102 124.512 87.3409 124.34C87.2716 124.169 87.2373 123.985 87.24 123.8V117.69H80.63V123.8C80.6001 124.155 80.4381 124.485 80.1761 124.726C79.914 124.967 79.571 125.101 79.215 125.101C78.859 125.101 78.516 124.967 78.2539 124.726C77.9918 124.485 77.8298 124.155 77.8 123.8Z" fill="#00112D"/>
<path d="M93.94 123.8V108.8C93.9373 108.615 93.9717 108.431 94.0409 108.26C94.1102 108.088 94.2131 107.932 94.3435 107.801C94.4739 107.669 94.6292 107.565 94.8003 107.495C94.9715 107.424 95.1549 107.389 95.34 107.39H103.68C104.035 107.42 104.365 107.582 104.606 107.844C104.847 108.106 104.981 108.449 104.981 108.805C104.981 109.161 104.847 109.504 104.606 109.766C104.365 110.028 104.035 110.19 103.68 110.22H96.8V114.89H102.74C103.095 114.92 103.425 115.082 103.666 115.344C103.907 115.606 104.041 115.949 104.041 116.305C104.041 116.661 103.907 117.004 103.666 117.266C103.425 117.528 103.095 117.69 102.74 117.72H96.8V122.41H103.71C104.065 122.44 104.395 122.602 104.636 122.864C104.877 123.126 105.011 123.469 105.011 123.825C105.011 124.181 104.877 124.524 104.636 124.786C104.395 125.048 104.065 125.21 103.71 125.24H95.45C95.4 125.24 95.4 125.24 95.4 125.24C95.2077 125.248 95.0158 125.217 94.8363 125.148C94.6567 125.079 94.4933 124.973 94.3563 124.838C94.2193 124.703 94.1116 124.541 94.04 124.362C93.9684 124.184 93.9343 123.992 93.94 123.8Z" fill="#00112D"/>
<path d="M118.16 121H111.96L110.71 124.28C110.606 124.545 110.424 124.773 110.189 124.933C109.953 125.094 109.675 125.18 109.39 125.18C109.223 125.179 109.058 125.152 108.9 125.1C108.549 124.961 108.266 124.692 108.11 124.349C107.953 124.006 107.935 123.616 108.06 123.26L113.7 108.26C113.808 107.992 113.995 107.763 114.236 107.604C114.477 107.445 114.761 107.363 115.05 107.37C115.339 107.36 115.625 107.441 115.866 107.6C116.108 107.76 116.295 107.99 116.4 108.26L122.03 123.26C122.157 123.616 122.141 124.007 121.984 124.351C121.827 124.694 121.542 124.963 121.19 125.1C121.036 125.154 120.873 125.181 120.71 125.18C120.427 125.181 120.151 125.096 119.918 124.935C119.686 124.774 119.508 124.545 119.41 124.28L118.16 121ZM117.11 118.2L115.05 112.72L112.98 118.2H117.11Z" fill="#00112D"/>
<path d="M125.53 123.8V108.8C125.527 108.615 125.562 108.431 125.631 108.26C125.7 108.088 125.803 107.932 125.933 107.801C126.064 107.669 126.219 107.565 126.39 107.495C126.561 107.424 126.745 107.389 126.93 107.39H129.93C132.245 107.468 134.44 108.442 136.05 110.107C137.661 111.772 138.561 113.998 138.561 116.315C138.561 118.632 137.661 120.858 136.05 122.523C134.44 124.188 132.245 125.162 129.93 125.24H126.93C126.743 125.24 126.557 125.203 126.385 125.13C126.212 125.057 126.056 124.95 125.926 124.816C125.795 124.682 125.693 124.523 125.625 124.348C125.557 124.174 125.525 123.987 125.53 123.8ZM128.35 122.38H129.94C131.514 122.316 133.002 121.646 134.093 120.51C135.184 119.374 135.793 117.86 135.793 116.285C135.793 114.71 135.184 113.196 134.093 112.06C133.002 110.924 131.514 110.254 129.94 110.19H128.35V122.38Z" fill="#00112D"/>
<path d="M141.94 123.8V108.8C141.939 108.615 141.974 108.432 142.044 108.261C142.113 108.09 142.216 107.935 142.347 107.804C142.477 107.672 142.631 107.568 142.802 107.497C142.972 107.427 143.155 107.39 143.34 107.39C143.716 107.39 144.077 107.538 144.344 107.802C144.612 108.066 144.765 108.424 144.77 108.8V122.38H151.67C152.025 122.41 152.355 122.572 152.596 122.834C152.837 123.096 152.971 123.439 152.971 123.795C152.971 124.151 152.837 124.494 152.596 124.756C152.355 125.018 152.025 125.18 151.67 125.21H143.34C143.155 125.21 142.972 125.173 142.802 125.102C142.631 125.031 142.477 124.927 142.347 124.796C142.216 124.665 142.113 124.51 142.044 124.339C141.974 124.168 141.939 123.985 141.94 123.8Z" fill="#00112D"/>
<path d="M156.59 108.77C156.589 108.584 156.624 108.401 156.695 108.229C156.765 108.057 156.869 107.901 157 107.77C157.131 107.639 157.287 107.535 157.459 107.465C157.631 107.394 157.814 107.359 158 107.36C158.375 107.36 158.735 107.508 159.001 107.772C159.267 108.037 159.417 108.395 159.42 108.77V123.77C159.417 124.145 159.267 124.503 159.001 124.768C158.735 125.032 158.375 125.18 158 125.18C157.814 125.181 157.631 125.146 157.459 125.075C157.287 125.005 157.131 124.901 157 124.77C156.869 124.639 156.765 124.483 156.695 124.311C156.624 124.139 156.589 123.956 156.59 123.77V108.77Z" fill="#00112D"/>
<path d="M166.99 123.8C167.006 123.992 166.983 124.185 166.92 124.367C166.858 124.549 166.759 124.716 166.629 124.858C166.498 125 166.34 125.113 166.164 125.19C165.988 125.268 165.797 125.308 165.605 125.308C165.412 125.308 165.222 125.268 165.046 125.19C164.87 125.113 164.711 125 164.581 124.858C164.451 124.716 164.352 124.549 164.29 124.367C164.227 124.185 164.204 123.992 164.22 123.8V108.97C164.208 108.744 164.252 108.518 164.35 108.313C164.448 108.109 164.596 107.932 164.78 107.8C165.076 107.586 165.445 107.498 165.807 107.554C166.168 107.61 166.492 107.806 166.71 108.1L174.95 119.5V109C174.953 108.637 175.097 108.289 175.353 108.031C175.61 107.773 175.957 107.625 176.32 107.62C176.688 107.622 177.041 107.768 177.304 108.025C177.567 108.283 177.72 108.632 177.73 109V123.8C177.727 124.173 177.578 124.53 177.314 124.794C177.05 125.058 176.693 125.207 176.32 125.21C176.127 125.199 175.939 125.147 175.767 125.06C175.595 124.972 175.442 124.849 175.32 124.7C175.271 124.652 175.227 124.598 175.19 124.54L166.99 113.28V123.8Z" fill="#00112D"/>
<path d="M180.85 106.46H180.28V127.18H180.85V106.46Z" fill="#00112D"/>
<path d="M194.1 125.08H75.43V125.33H194.1V125.08Z" fill="#00112D"/>
<path d="M198.47 130.28H71.06V102.18H198.47V130.28ZM71.31 130.03H198.22V102.43H71.31V130.03Z" fill="#00112D"/>
<path d="M72.12 101.42H70.26V103.28H72.12V101.42Z" fill="#F9F9FB"/>
<path d="M72.24 103.4H70.13V101.28H72.24V103.4ZM70.38 103.15H71.99V101.54H70.38V103.15Z" fill="#00112D"/>
<path d="M135.7 101.42H133.84V103.28H135.7V101.42Z" fill="#F9F9FB"/>
<path d="M135.8 103.4H133.69V101.28H135.8V103.4ZM133.94 103.15H135.55V101.54H133.94V103.15Z" fill="#00112D"/>
<path d="M72.12 115.34H70.26V117.2H72.12V115.34Z" fill="#F9F9FB"/>
<path d="M72.24 117.28H70.13V115.18H72.24V117.28ZM70.38 117.03H71.99V115.43H70.38V117.03Z" fill="#00112D"/>
<path d="M72.12 129.27H70.26V131.13H72.12V129.27Z" fill="#F9F9FB"/>
<path d="M72.24 131.28H70.13V129.17H72.24V131.28ZM70.38 131.03H71.99V129.42H70.38V131.03Z" fill="#00112D"/>
<path d="M135.7 129.27H133.84V131.13H135.7V129.27Z" fill="#F9F9FB"/>
<path d="M135.8 131.28H133.69V129.17H135.8V131.28ZM133.94 131.03H135.55V129.42H133.94V131.03Z" fill="#00112D"/>
<path d="M199.28 101.42H197.42V103.28H199.28V101.42Z" fill="#F9F9FB"/>
<path d="M199.4 103.4H197.29V101.28H199.4V103.4ZM197.54 103.15H199.15V101.54H197.54V103.15Z" fill="#00112D"/>
<path d="M199.28 115.34H197.42V117.2H199.28V115.34Z" fill="#F9F9FB"/>
<path d="M199.4 117.28H197.29V115.18H199.4V117.28ZM197.54 117.03H199.15V115.43H197.54V117.03Z" fill="#00112D"/>
<path d="M199.28 129.27H197.42V131.13H199.28V129.27Z" fill="#F9F9FB"/>
<path d="M199.4 131.28H197.29V129.17H199.4V131.28ZM197.54 131.03H199.15V129.42H197.54V131.03Z" fill="#00112D"/>
<path d="M231.88 194.97L357.4 194.97V109.36L231.88 109.36V194.97Z" fill="#747473"/>
<path opacity="0.1" d="M284.51 172.75H357.39L320.95 144.88L284.51 172.75Z" fill="black"/>
<path d="M256.55 172.75H316.72L286.64 154.6L256.55 172.75Z" fill="#747473"/>
<g opacity="0.2">
<path d="M256.55 172.75H316.72L286.64 154.6L256.55 172.75Z" fill="black"/>
</g>
<path d="M357.39 172.75H231.87V194.97H357.39V172.75Z" fill="#747473"/>
<path opacity="0.2" d="M357.39 172.75H231.87V194.97H357.39V172.75Z" fill="black"/>
<path opacity="0.1" d="M263.69 140.28C263.69 141.653 263.283 142.994 262.52 144.136C261.758 145.277 260.674 146.166 259.406 146.692C258.138 147.217 256.742 147.354 255.396 147.087C254.05 146.819 252.813 146.158 251.843 145.187C250.872 144.217 250.211 142.98 249.943 141.634C249.676 140.288 249.813 138.892 250.338 137.624C250.864 136.356 251.753 135.272 252.894 134.51C254.036 133.747 255.377 133.34 256.75 133.34C258.591 133.34 260.356 134.071 261.657 135.373C262.959 136.674 263.69 138.439 263.69 140.28Z" fill="black"/>
<path d="M363.23 200.8H226.04V103.53H363.23V200.8ZM226.29 200.55H362.98V103.78H226.29V200.55Z" fill="#00112D"/>
<path d="M228.4 101.42H223.92V105.9H228.4V101.42Z" fill="#F9F9FB"/>
<path d="M228.53 106.02H223.8V101.28H228.53V106.02ZM224.05 105.77H228.28V101.54H224.05V105.77Z" fill="#00112D"/>
<path d="M296.87 101.42H292.39V105.9H296.87V101.42Z" fill="#F9F9FB"/>
<path d="M297 106.02H292.27V101.28H297V106.02ZM292.52 105.77H296.8V101.54H292.57L292.52 105.77Z" fill="#00112D"/>
<path d="M365.34 101.42H360.86V105.9H365.34V101.42Z" fill="#F9F9FB"/>
<path d="M365.47 106.02H360.73V101.28H365.47V106.02ZM360.98 105.77H365.22V101.54H360.98V105.77Z" fill="#00112D"/>
<path d="M228.4 149.93H223.92V154.41H228.4V149.93Z" fill="#F9F9FB"/>
<path d="M228.53 154.53H223.8V149.8H228.53V154.53ZM224.05 154.28H228.28V150.05H224.05V154.28Z" fill="#00112D"/>
<path d="M365.34 149.93H360.86V154.41H365.34V149.93Z" fill="#F9F9FB"/>
<path d="M365.47 154.53H360.73V149.8H365.47V154.53ZM360.98 154.28H365.22V150.05H360.98V154.28Z" fill="#00112D"/>
<path d="M228.4 198.44H223.92V202.92H228.4V198.44Z" fill="#F9F9FB"/>
<path d="M228.53 203.04H223.8V198.28H228.53V203.04ZM224.05 202.79H228.28V198.56H224.05V202.79Z" fill="#00112D"/>
<path d="M296.87 198.44H292.39V202.92H296.87V198.44Z" fill="#F9F9FB"/>
<path d="M297 203.04H292.27V198.28H297V203.04ZM292.52 202.79H296.8V198.56H292.57L292.52 202.79Z" fill="#00112D"/>
<path d="M365.34 198.44H360.86V202.92H365.34V198.44Z" fill="#F9F9FB"/>
<path d="M365.47 203.04H360.73V198.28H365.47V203.04ZM360.98 202.79H365.22V198.56H360.98V202.79Z" fill="#00112D"/>
<path d="M231.88 245.24H264.82V212.3H231.88V245.24Z" fill="#747473"/>
<path opacity="0.1" d="M237.18 220.16C237.049 220.814 237.132 221.494 237.417 222.097C237.702 222.701 238.174 223.197 238.762 223.512C239.351 223.827 240.025 223.944 240.685 223.846C241.346 223.748 241.957 223.441 242.429 222.969C242.901 222.497 243.208 221.885 243.306 221.225C243.404 220.565 243.287 219.891 242.972 219.302C242.657 218.714 242.161 218.242 241.557 217.957C240.954 217.672 240.275 217.589 239.62 217.72C239.018 217.84 238.465 218.136 238.031 218.571C237.596 219.005 237.3 219.558 237.18 220.16Z" fill="black"/>
<path opacity="0.1" d="M241.01 236.69H264.81L252.91 223.34L241.01 236.69Z" fill="black"/>
<path d="M231.87 236.69H251.53L241.7 228L231.87 236.69Z" fill="#747473"/>
<g opacity="0.2">
<path d="M231.87 236.69H251.53L241.7 228L231.87 236.69Z" fill="black"/>
</g>
<path d="M264.81 236.69H231.87V245.24H264.81V236.69Z" fill="#747473"/>
<path opacity="0.2" d="M264.81 236.69H231.87V245.24H264.81V236.69Z" fill="black"/>
<path d="M279.66 245.36H278.04V243.74H278.29V245.11H279.66V245.36Z" fill="#00112D"/>
<path d="M306.88 245.36H304.16V245.11H306.88V245.36ZM301.44 245.36H298.72V245.11H301.44V245.36ZM295.99 245.36H293.27V245.11H295.99V245.36ZM290.55 245.36H287.8V245.11H290.52L290.55 245.36ZM285.11 245.36H282.39V245.11H285.11V245.36Z" fill="#00112D"/>
<path d="M311.23 245.36H309.6V245.11H310.98V243.74H311.23V245.36Z" fill="#00112D"/>
<path d="M311.23 241.02H310.98V238.28H311.23V241.02ZM311.23 235.57H310.98V232.85H311.23V235.57ZM311.23 230.13H310.98V227.41H311.23V230.13ZM311.23 224.69H310.98V221.97H311.23V224.69ZM311.23 219.24H310.98V216.52H311.23V219.24Z" fill="#00112D"/>
<path d="M311.23 213.8H310.98V212.43H309.6V212.18H311.23V213.8Z" fill="#00112D"/>
<path d="M306.88 212.43H304.16V212.18H306.88V212.43ZM301.44 212.43H298.72V212.18H301.44V212.43ZM295.99 212.43H293.27V212.18H295.99V212.43ZM290.55 212.43H287.8V212.18H290.52L290.55 212.43ZM285.11 212.43H282.38V212.18H285.11V212.43Z" fill="#00112D"/>
<path d="M278.29 213.8H278.04V212.18H279.66V212.43H278.29V213.8Z" fill="#00112D"/>
<path d="M278.29 241.02H278.04V238.28H278.29V241.02ZM278.29 235.57H278.04V232.85H278.29V235.57ZM278.29 230.13H278.04V227.41H278.29V230.13ZM278.29 224.69H278.04V221.97H278.29V224.69ZM278.29 219.24H278.04V216.52H278.29V219.24Z" fill="#00112D"/>
<path d="M295.44 221.26H293.82V236.28H295.44V221.26Z" fill="#00112D"/>
<path d="M302.14 229.58V227.96H287.12V229.58H302.14Z" fill="#00112D"/>
<path d="M324.46 245.24H357.4V212.3H324.46V245.24Z" fill="#747473"/>
<path opacity="0.1" d="M329.8 220.16C329.669 220.814 329.752 221.494 330.037 222.097C330.322 222.701 330.794 223.197 331.382 223.512C331.971 223.827 332.645 223.944 333.305 223.846C333.966 223.748 334.577 223.441 335.049 222.969C335.521 222.497 335.828 221.885 335.926 221.225C336.024 220.565 335.907 219.891 335.592 219.302C335.277 218.714 334.781 218.242 334.177 217.957C333.574 217.672 332.895 217.589 332.24 217.72C331.638 217.84 331.085 218.136 330.651 218.571C330.216 219.005 329.92 219.558 329.8 220.16Z" fill="black"/>
<path opacity="0.1" d="M333.59 236.69H357.39L345.49 223.34L333.59 236.69Z" fill="black"/>
<path d="M324.45 236.69H344.11L334.28 228L324.45 236.69Z" fill="#747473"/>
<g opacity="0.2">
<path d="M324.45 236.69H344.11L334.28 228L324.45 236.69Z" fill="black"/>
</g>
<path d="M357.39 236.69H324.45V245.24H357.39V236.69Z" fill="#747473"/>
<path opacity="0.2" d="M357.39 236.69H324.45V245.24H357.39V236.69Z" fill="black"/>
<path d="M67.98 68.32H60.69V69.49H67.98V68.32Z" fill="#EBEBEB"/>
<path d="M67.98 73.57H60.69V74.74H67.98V73.57Z" fill="#EBEBEB"/>
<path d="M67.98 70.98H60.69V72.15H67.98V70.98Z" fill="#EBEBEB"/>
<path d="M195.92 70.98H152.42V73.58H195.92V70.98Z" fill="#EBEBEB"/>
<path d="M255.58 70.98H212.08V73.58H255.58V70.98Z" fill="#EBEBEB"/>
<path d="M315.25 70.98H271.75V73.58H315.25V70.98Z" fill="#747473"/>
<path d="M374.91 70.98H331.41V73.58H374.91V70.98Z" fill="#EBEBEB"/>
<path d="M374.46 65.1C374.462 68.9449 375.604 72.7028 377.742 75.8986C379.88 79.0944 382.917 81.5845 386.47 83.054C390.023 84.5236 393.932 84.9065 397.702 84.1545C401.473 83.4025 404.936 81.5492 407.653 78.8291C410.371 76.1089 412.22 72.6441 412.968 68.8727C413.717 65.1014 413.33 61.1928 411.856 57.6414C410.383 54.09 407.89 51.0551 404.692 48.9207C401.494 46.7862 397.735 45.648 393.89 45.65C388.736 45.6579 383.795 47.7103 380.153 51.3568C376.51 55.0032 374.463 59.9458 374.46 65.1ZM378.59 65.1C378.588 62.0711 379.485 59.1097 381.166 56.5905C382.848 54.0712 385.239 52.1073 388.037 50.9473C390.834 49.7873 393.914 49.4833 396.884 50.0737C399.855 50.6641 402.584 52.1225 404.726 54.2642C406.868 56.4059 408.326 59.1348 408.916 62.1056C409.507 65.0764 409.203 68.1556 408.043 70.9535C406.883 73.7514 404.919 76.1424 402.4 77.824C399.88 79.5055 396.919 80.402 393.89 80.4C389.832 80.4 385.941 78.788 383.071 75.9187C380.202 73.0494 378.59 69.1578 378.59 65.1ZM374.46 65.1C374.462 68.9449 375.604 72.7028 377.742 75.8986C379.88 79.0944 382.917 81.5845 386.47 83.054C390.023 84.5236 393.932 84.9065 397.702 84.1545C401.473 83.4025 404.936 81.5492 407.653 78.8291C410.371 76.1089 412.22 72.6441 412.968 68.8727C413.717 65.1014 413.33 61.1928 411.856 57.6414C410.383 54.09 407.89 51.0551 404.692 48.9207C401.494 46.7862 397.735 45.648 393.89 45.65C388.736 45.6579 383.795 47.7103 380.153 51.3568C376.51 55.0032 374.463 59.9458 374.46 65.1ZM378.59 65.1C378.588 62.0711 379.485 59.1097 381.166 56.5905C382.848 54.0712 385.239 52.1073 388.037 50.9473C390.834 49.7873 393.914 49.4833 396.884 50.0737C399.855 50.6641 402.584 52.1225 404.726 54.2642C406.868 56.4059 408.326 59.1348 408.916 62.1056C409.507 65.0764 409.203 68.1556 408.043 70.9535C406.883 73.7514 404.919 76.1424 402.4 77.824C399.88 79.5055 396.919 80.402 393.89 80.4C389.832 80.4 385.941 78.788 383.071 75.9187C380.202 73.0494 378.59 69.1578 378.59 65.1ZM361.12 65.1C361.128 71.582 363.057 77.9161 366.665 83.3017C370.272 88.6873 375.395 92.8826 381.386 95.3572C387.377 97.8318 393.967 98.4747 400.323 97.2045C406.68 95.9344 412.517 92.8082 417.097 88.2213C421.677 83.6343 424.794 77.7925 426.054 71.4342C427.315 65.076 426.662 58.4867 424.178 52.4995C421.694 46.5122 417.491 41.3957 412.1 37.7968C406.709 34.1979 400.372 32.278 393.89 32.28C389.582 32.28 385.317 33.1293 381.338 34.7792C377.359 36.4292 373.744 38.8475 370.7 41.8958C367.657 44.9441 365.244 48.5625 363.6 52.5441C361.956 56.5257 361.113 60.7924 361.12 65.1ZM372.59 65.1C372.59 60.8849 373.84 56.7644 376.182 53.2598C378.524 49.7551 381.853 47.0238 385.747 45.4112C389.642 43.7986 393.927 43.3771 398.061 44.2002C402.195 45.0233 405.992 47.0538 408.972 50.0351C411.952 53.0164 413.981 56.8144 414.802 60.9488C415.623 65.0832 415.199 69.3682 413.585 73.2619C411.971 77.1556 409.238 80.4831 405.732 82.8235C402.226 85.1638 398.105 86.412 393.89 86.41C388.242 86.3994 382.829 84.1505 378.837 80.1562C374.844 76.1618 372.598 70.7476 372.59 65.1ZM374.46 65.1C374.462 68.9449 375.604 72.7028 377.742 75.8986C379.88 79.0944 382.917 81.5845 386.47 83.054C390.023 84.5236 393.932 84.9065 397.702 84.1545C401.473 83.4025 404.936 81.5492 407.653 78.8291C410.371 76.1089 412.22 72.6441 412.968 68.8727C413.717 65.1014 413.33 61.1928 411.856 57.6414C410.383 54.09 407.89 51.0551 404.692 48.9207C401.494 46.7862 397.735 45.648 393.89 45.65C388.736 45.6579 383.795 47.7103 380.153 51.3568C376.51 55.0032 374.463 59.9458 374.46 65.1ZM378.59 65.1C378.588 62.0711 379.485 59.1097 381.166 56.5905C382.848 54.0712 385.239 52.1073 388.037 50.9473C390.834 49.7873 393.914 49.4833 396.884 50.0737C399.855 50.6641 402.584 52.1225 404.726 54.2642C406.868 56.4059 408.326 59.1348 408.916 62.1056C409.507 65.0764 409.203 68.1556 408.043 70.9535C406.883 73.7514 404.919 76.1424 402.4 77.824C399.88 79.5055 396.919 80.402 393.89 80.4C391.881 80.4 389.891 80.0043 388.035 79.2354C386.179 78.4665 384.492 77.3395 383.071 75.9187C381.651 74.498 380.524 72.8113 379.755 70.9551C378.986 69.0988 378.59 67.1092 378.59 65.1Z" fill="#A6AEBB"/>
<path d="M390.05 32.91H397.55L396.81 25.42H390.8L390.05 32.91Z" fill="#A6AEBB"/>
<path d="M406.66 35.3L413.16 39.05L416.25 32.19L411.05 29.18L406.66 35.3Z" fill="#A6AEBB"/>
<path d="M419.85 45.67L423.6 52.17L429.71 47.78L426.71 42.57L419.85 45.67Z" fill="#A6AEBB"/>
<path d="M426.08 61.25V68.75L433.57 68V61.99L426.08 61.25Z" fill="#A6AEBB"/>
<path d="M423.7 77.86L419.94 84.36L426.8 87.45L429.81 82.25L423.7 77.86Z" fill="#A6AEBB"/>
<path d="M413.32 91.05L406.82 94.8L411.22 100.91L416.42 97.91L413.32 91.05Z" fill="#A6AEBB"/>
<path d="M397.75 97.28H390.24L390.99 104.77H397L397.75 97.28Z" fill="#A6AEBB"/>
<path d="M381.14 94.89L374.64 91.14L371.54 98L376.75 101.01L381.14 94.89Z" fill="#A6AEBB"/>
<path d="M367.95 84.52L364.2 78.02L358.08 82.42L361.09 87.62L367.95 84.52Z" fill="#A6AEBB"/>
<path d="M361.71 68.95V61.44L354.22 62.19V68.2L361.71 68.95Z" fill="#A6AEBB"/>
<path d="M364.1 52.34L367.85 45.84L360.99 42.74L357.99 47.94L364.1 52.34Z" fill="#A6AEBB"/>
<path d="M374.47 39.15L380.97 35.39L376.58 29.28L371.37 32.29L374.47 39.15Z" fill="#A6AEBB"/>
<path d="M315.53 36.49C315.43 40.2626 316.452 43.9801 318.465 47.1722C320.478 50.3643 323.393 52.8876 326.841 54.423C330.288 55.9585 334.114 56.437 337.833 55.7982C341.553 55.1594 344.999 53.4318 347.737 50.8341C350.474 48.2364 352.38 44.8851 353.213 41.2042C354.046 37.5233 353.768 33.6781 352.416 30.1549C351.063 26.6316 348.696 23.5887 345.614 21.4109C342.531 19.2331 338.873 18.0182 335.1 17.92C332.595 17.8535 330.102 18.2811 327.763 19.1785C325.424 20.0759 323.285 21.4254 321.467 23.1499C319.65 24.8745 318.19 26.9403 317.171 29.2292C316.152 31.5182 315.595 33.9854 315.53 36.49ZM325.7 36.76C325.746 34.9982 326.314 33.2897 327.331 31.8505C328.348 30.4113 329.769 29.3061 331.415 28.6746C333.06 28.0432 334.856 27.9139 336.575 28.3031C338.293 28.6924 339.858 29.5826 341.071 30.8612C342.284 32.1399 343.091 33.7495 343.389 35.4865C343.687 37.2235 343.463 39.0099 342.745 40.6197C342.028 42.2295 340.85 43.5904 339.359 44.5303C337.868 45.4702 336.132 45.9469 334.37 45.9C332.008 45.8372 329.768 44.839 328.143 43.1251C326.517 41.4111 325.638 39.1216 325.7 36.76Z" fill="#2A3950"/>
<path d="M331.42 18.62L338.75 18.81L338.48 13.61L331.96 13.44L331.42 18.62Z" fill="#2A3950"/>
<path d="M345.31 21.46L350.36 26.78L353.85 22.91L349.36 18.18L345.31 21.46Z" fill="#2A3950"/>
<path d="M353.13 33.29L352.93 40.62L358.14 40.35L358.31 33.83L353.13 33.29Z" fill="#2A3950"/>
<path d="M350.29 47.18L344.97 52.23L348.83 55.72L353.57 51.23L350.29 47.18Z" fill="#2A3950"/>
<path d="M338.46 55L331.12 54.81L331.39 60.01L337.91 60.18L338.46 55Z" fill="#2A3950"/>
<path d="M324.56 52.16L319.51 46.84L316.03 50.7L320.52 55.44L324.56 52.16Z" fill="#2A3950"/>
<path d="M316.75 40.33L316.94 32.99L311.74 33.26L311.57 39.78L316.75 40.33Z" fill="#2A3950"/>
<path d="M319.59 26.43L324.91 21.38L321.04 17.9L316.31 22.39L319.59 26.43Z" fill="#2A3950"/>
<path d="M339.67 32.28L333.42 30.42L328.68 34.92L330.21 41.28L336.46 43.14L341.19 38.65L339.67 32.28ZM334.88 38.83C334.47 38.8179 334.074 38.6845 333.74 38.4467C333.406 38.209 333.151 37.8775 333.005 37.4944C332.86 37.1112 332.832 36.6936 332.924 36.2944C333.017 35.8952 333.225 35.5323 333.524 35.2519C333.823 34.9714 334.198 34.7859 334.602 34.7188C335.007 34.6518 335.422 34.7062 335.795 34.8752C336.168 35.0442 336.483 35.3201 336.699 35.6681C336.915 36.0161 337.024 36.4205 337.01 36.83C337.007 37.1048 336.95 37.3764 336.841 37.6286C336.732 37.8809 336.573 38.1088 336.375 38.2989C336.176 38.489 335.942 38.6375 335.685 38.7356C335.428 38.8336 335.155 38.8793 334.88 38.87V38.83Z" fill="#2A3950"/>
<path d="M5.99 184.48C5.8904 188.253 6.91185 191.97 8.92515 195.162C10.9385 198.354 13.8532 200.878 17.3007 202.413C20.7482 203.948 24.5736 204.427 28.2931 203.788C32.0126 203.149 35.4591 201.422 38.1967 198.824C40.9343 196.226 42.8401 192.875 43.6729 189.194C44.5058 185.513 44.2283 181.668 42.8757 178.145C41.523 174.622 39.1559 171.579 36.0737 169.401C32.9915 167.223 29.3327 166.008 25.56 165.91C20.5033 165.781 15.6022 167.664 11.9329 171.146C8.26356 174.628 6.12614 179.423 5.99 184.48ZM16.15 184.75C16.1962 182.987 16.7644 181.278 17.7826 179.839C18.8008 178.399 20.2232 177.294 21.8697 176.663C23.5163 176.033 25.313 175.905 27.0323 176.295C28.7516 176.686 30.3164 177.579 31.5283 178.859C32.7403 180.14 33.5451 181.751 33.8408 183.49C34.1364 185.228 33.9097 187.015 33.1893 188.624C32.4689 190.233 31.2872 191.593 29.7938 192.53C28.3004 193.468 26.5625 193.941 24.8 193.89C22.4419 193.822 20.2071 192.822 18.5855 191.108C16.964 189.395 16.0881 187.108 16.15 184.75Z" fill="#7B889D"/>
<path d="M21.88 166.61L29.21 166.8L28.94 161.6L22.42 161.43L21.88 166.61Z" fill="#7B889D"/>
<path d="M35.77 169.45L40.82 174.77L44.31 170.9L39.82 166.17L35.77 169.45Z" fill="#7B889D"/>
<path d="M43.59 181.28L43.39 188.62L48.6 188.35L48.77 181.82L43.59 181.28Z" fill="#7B889D"/>
<path d="M40.75 195.18L35.43 200.22L39.29 203.71L44.03 199.22L40.75 195.18Z" fill="#7B889D"/>
<path d="M28.92 202.99L21.58 202.8L21.85 208L28.37 208.17L28.92 202.99Z" fill="#7B889D"/>
<path d="M15.02 200.15L9.96999 194.83L6.48 198.7L10.97 203.43L15.02 200.15Z" fill="#7B889D"/>
<path d="M7.21 188.32L7.4 180.99L2.2 181.25L2.03 187.78L7.21 188.32Z" fill="#7B889D"/>
<path d="M10.04 174.43L15.37 169.38L11.5 165.89L6.77 170.38L10.04 174.43Z" fill="#7B889D"/>
<path d="M30.13 180.28L23.87 178.43L19.14 182.92L20.67 189.28L26.91 191.13L31.65 186.64L30.13 180.28ZM25.34 186.84C24.9299 186.83 24.5321 186.698 24.1971 186.462C23.862 186.225 23.6048 185.894 23.4581 185.511C23.3114 185.128 23.2818 184.71 23.373 184.31C23.4643 183.91 23.6723 183.546 23.9707 183.265C24.269 182.983 24.6443 182.797 25.0488 182.729C25.4534 182.661 25.869 182.715 26.2428 182.884C26.6167 183.053 26.932 183.329 27.1487 183.677C27.3654 184.025 27.4737 184.43 27.46 184.84C27.4548 185.113 27.3958 185.382 27.2863 185.632C27.1768 185.881 27.019 186.107 26.822 186.296C26.625 186.484 26.3927 186.632 26.1383 186.731C25.884 186.829 25.6127 186.877 25.34 186.87V186.84Z" fill="#7B889D"/>
<path d="M425.05 264.58H276.91V358.31H425.05V264.58Z" fill="#F9F9FB"/>
<path d="M277.47 357.74H424.47V265.14H277.47V357.74Z" fill="#F9F9FB"/>
<path d="M277.47 357.74L424.47 357.59L424.32 357.74L424.22 265.14L424.47 265.39L277.47 265.24L277.58 265.14L277.47 357.74ZM277.47 357.74L277.37 265.14V265.04H277.47L424.47 264.89H424.72V265.14L424.63 357.74V357.9H424.47L277.47 357.74Z" fill="#263238"/>
<path d="M424.49 265.14H277.47V275.07H424.49V265.14Z" fill="#263238"/>
<path d="M294.14 296.61H288.41V298.7H294.14V296.61Z" fill="#F9F9FB"/>
<path d="M364.03 296.61H298.31V298.7H364.03V296.61Z" fill="#F9F9FB"/>
<path d="M378.43 296.61H367.55V298.7H378.43V296.61Z" fill="#747473"/>
<path d="M399.61 296.61H380.8V298.7H399.61V296.61Z" fill="#A6A6A6"/>
<path d="M299.87 302.21H294.14V304.3H299.87V302.21Z" fill="#F9F9FB"/>
<path d="M347.03 302.21H303.9V304.3H347.03V302.21Z" fill="#A6A6A6"/>
<path d="M339.51 319.02H298.31V321.11H339.51V319.02Z" fill="#A6A6A6"/>
<path d="M332.8 307.82H303.9V309.91H332.8V307.82Z" fill="#747473"/>
<path d="M385.85 313.42H374.83V315.51H385.85V313.42Z" fill="#A6A6A6"/>
<path d="M382.15 307.82H336V309.91H382.15V307.82Z" fill="#A6A6A6"/>
<path d="M353.4 324.62H298.31V326.71H353.4V324.62Z" fill="#747473"/>
<path d="M409.44 302.21H379.59V304.3H409.44V302.21Z" fill="#747473"/>
<path d="M377.22 302.21H349.73V304.3H377.22V302.21Z" fill="#F9F9FB"/>
<path d="M402.87 307.82H384.32V309.91H402.87V307.82Z" fill="#F9F9FB"/>
<path d="M299.87 307.82H294.14V309.91H299.87V307.82Z" fill="#F9F9FB"/>
<path d="M294.14 313.42H288.41V315.51H294.14V313.42Z" fill="#A6A6A6"/>
<path d="M332.17 313.42H298.31V315.51H332.17V313.42Z" fill="#F9F9FB"/>
<path d="M378.44 319.02H341.84V321.11H378.44V319.02Z" fill="#F9F9FB"/>
<path d="M404.09 319.02H380.8V321.11H404.09V319.02Z" fill="#747473"/>
<path d="M372.16 313.42H335.61V315.51H372.16V313.42Z" fill="#747473"/>
<path d="M294.14 319.02H288.41V321.11H294.14V319.02Z" fill="#F9F9FB"/>
<path d="M294.14 324.62H288.41V326.71H294.14V324.62Z" fill="#F9F9FB"/>
<path d="M291.95 291.1C292.042 291.195 292.094 291.322 292.094 291.455C292.094 291.588 292.042 291.715 291.95 291.81C291.854 291.9 291.727 291.95 291.595 291.95C291.463 291.95 291.336 291.9 291.24 291.81L289.03 289.57C289.03 289.57 289.03 289.57 289.03 289.52C289.026 289.497 289.026 289.473 289.03 289.45C289.03 289.45 289.03 289.45 289.03 289.4V289.28C289.03 289.28 289.03 289.28 289.03 289.23V289.16C289.03 289.16 289.03 289.1 289.03 289.09C289.03 289.09 289.03 289.09 289.08 289.09L291.29 286.85C291.385 286.758 291.512 286.706 291.645 286.706C291.778 286.706 291.905 286.758 292 286.85C292.092 286.943 292.143 287.069 292.143 287.2C292.143 287.331 292.092 287.457 292 287.55L290.13 289.43L291.95 291.1Z" fill="#747473"/>
<path d="M293.95 291.35L295.88 286.77C295.898 286.713 295.927 286.66 295.967 286.615C296.006 286.57 296.054 286.533 296.109 286.508C296.163 286.483 296.222 286.469 296.282 286.468C296.342 286.466 296.401 286.478 296.456 286.501C296.512 286.524 296.562 286.558 296.603 286.602C296.644 286.645 296.676 286.697 296.696 286.753C296.716 286.81 296.724 286.87 296.72 286.929C296.715 286.989 296.698 287.047 296.67 287.1L294.74 291.69C294.708 291.769 294.652 291.836 294.581 291.882C294.509 291.929 294.425 291.952 294.34 291.95C294.291 291.96 294.24 291.96 294.19 291.95C294.132 291.93 294.08 291.897 294.036 291.855C293.992 291.812 293.957 291.761 293.934 291.704C293.911 291.648 293.901 291.587 293.904 291.525C293.907 291.464 293.922 291.405 293.95 291.35Z" fill="#747473"/>
<path d="M300.47 289.51L300.41 289.57L298.2 291.81C298.105 291.899 297.98 291.949 297.85 291.95C297.717 291.949 297.589 291.899 297.49 291.81C297.398 291.715 297.346 291.588 297.346 291.455C297.346 291.322 297.398 291.195 297.49 291.1L299.36 289.22L297.49 287.34C297.398 287.247 297.347 287.121 297.347 286.99C297.347 286.859 297.398 286.733 297.49 286.64C297.585 286.548 297.713 286.496 297.845 286.496C297.978 286.496 298.105 286.548 298.2 286.64L300.41 288.88C300.41 288.88 300.41 288.88 300.47 288.88C300.47 288.88 300.47 288.88 300.47 288.95C300.466 288.973 300.466 288.997 300.47 289.02V289.1V289.22C300.47 289.22 300.47 289.28 300.47 289.29C300.47 289.29 300.49 289.47 300.47 289.51Z" fill="#747473"/>
<path d="M285.19 270.02C285.19 270.378 285.084 270.728 284.885 271.026C284.686 271.323 284.403 271.555 284.073 271.692C283.742 271.829 283.378 271.865 283.027 271.795C282.676 271.725 282.353 271.553 282.1 271.3C281.847 271.047 281.675 270.724 281.605 270.373C281.535 270.022 281.571 269.658 281.708 269.327C281.845 268.997 282.077 268.714 282.374 268.515C282.672 268.316 283.022 268.21 283.38 268.21C283.86 268.21 284.32 268.401 284.66 268.74C284.999 269.08 285.19 269.54 285.19 270.02Z" fill="#747473"/>
<path d="M292.56 270.02C292.56 270.378 292.454 270.729 292.254 271.027C292.055 271.324 291.772 271.556 291.44 271.693C291.109 271.83 290.745 271.865 290.393 271.794C290.042 271.724 289.719 271.55 289.467 271.296C289.214 271.042 289.042 270.719 288.974 270.367C288.905 270.015 288.942 269.651 289.081 269.32C289.219 268.99 289.453 268.708 289.752 268.51C290.051 268.312 290.402 268.208 290.76 268.21C291.238 268.213 291.696 268.404 292.033 268.744C292.371 269.083 292.56 269.542 292.56 270.02Z" fill="#F9F9FB"/>
<path d="M299.94 270.02C299.94 270.378 299.834 270.728 299.635 271.026C299.436 271.323 299.153 271.555 298.823 271.692C298.492 271.829 298.128 271.865 297.777 271.795C297.426 271.725 297.103 271.553 296.85 271.3C296.597 271.047 296.425 270.724 296.355 270.373C296.285 270.022 296.321 269.658 296.458 269.327C296.595 268.997 296.827 268.714 297.124 268.515C297.422 268.316 297.772 268.21 298.13 268.21C298.61 268.21 299.07 268.401 299.41 268.74C299.749 269.08 299.94 269.54 299.94 270.02Z" fill="#343434"/>
<path d="M166.21 198.65C164.717 196.428 163.91 193.817 163.89 191.14C163.89 181.63 174.33 173.92 187.2 173.92C200.07 173.92 210.51 181.63 210.51 191.14C210.51 200.65 200.08 208.36 187.2 208.36C181.48 208.453 175.868 206.792 171.12 203.6L163.12 205.6L166.21 198.65Z" fill="#FFFEFD"/>
<path d="M166.21 198.65C164.73 196.559 163.885 194.084 163.779 191.524C163.672 188.963 164.308 186.427 165.61 184.22C166.906 182.007 168.654 180.092 170.74 178.6C172.808 177.093 175.099 175.919 177.53 175.12C179.956 174.311 182.471 173.797 185.02 173.59C187.569 173.416 190.13 173.544 192.65 173.97C195.185 174.378 197.649 175.143 199.97 176.24C202.31 177.327 204.447 178.805 206.29 180.61C208.166 182.424 209.57 184.669 210.38 187.15C211.173 189.662 211.197 192.354 210.45 194.88C209.677 197.374 208.304 199.641 206.45 201.48C204.635 203.31 202.517 204.812 200.19 205.92C195.532 208.091 190.396 209.034 185.27 208.66C180.146 208.389 175.199 206.7 170.98 203.78H171.17L163.11 205.72L162.87 205.77L162.97 205.55L166.21 198.65ZM166.21 198.65L163.21 205.65L163.07 205.48L171.07 203.33H171.17L171.26 203.39C175.444 206.158 180.307 207.725 185.32 207.92C187.809 208.048 190.303 207.873 192.75 207.4C195.198 206.967 197.574 206.196 199.81 205.11C202.041 204.034 204.07 202.582 205.81 200.82C207.542 199.078 208.822 196.939 209.54 194.59C210.212 192.242 210.178 189.748 209.44 187.42C208.68 185.09 207.37 182.977 205.62 181.26C203.872 179.528 201.843 178.104 199.62 177.05C197.381 175.974 195 175.22 192.55 174.81C187.628 173.938 182.569 174.263 177.8 175.76C172.972 177.155 168.799 180.225 166.03 184.42C164.707 186.555 164.014 189.019 164.03 191.53C164.089 194.058 164.844 196.522 166.21 198.65Z" fill="#263238"/>
<path d="M179.95 195.78C180.181 196.012 180.311 196.327 180.311 196.655C180.311 196.983 180.181 197.298 179.95 197.53C179.717 197.75 179.41 197.875 179.09 197.88C178.76 197.881 178.441 197.755 178.2 197.53L172.74 192C172.68 192 172.66 191.94 172.64 191.88C172.623 191.877 172.606 191.877 172.59 191.88C172.563 191.833 172.543 191.783 172.53 191.73C172.514 191.722 172.501 191.711 172.49 191.697C172.48 191.683 172.473 191.667 172.47 191.65C172.47 191.65 172.47 191.55 172.47 191.53C172.47 191.51 172.47 191.45 172.47 191.43V191.28C172.47 191.28 172.47 191.22 172.47 191.16C172.47 191.1 172.47 191.08 172.47 191.06V190.93C172.47 190.93 172.47 190.87 172.47 190.85C172.47 190.83 172.47 190.75 172.47 190.7C172.499 190.638 172.532 190.578 172.57 190.52C172.591 190.466 172.63 190.42 172.68 190.39L178.14 184.85C178.377 184.628 178.69 184.504 179.015 184.504C179.34 184.504 179.653 184.628 179.89 184.85C180.121 185.082 180.251 185.397 180.251 185.725C180.251 186.053 180.121 186.368 179.89 186.6L175.28 191.24L179.95 195.78Z" fill="#747473"/>
<path d="M184.9 196.4L189.66 185.08C189.715 184.95 189.796 184.833 189.897 184.735C189.998 184.636 190.118 184.559 190.249 184.507C190.38 184.455 190.52 184.429 190.661 184.431C190.802 184.434 190.941 184.464 191.07 184.52C191.201 184.569 191.321 184.644 191.421 184.742C191.522 184.84 191.6 184.958 191.652 185.088C191.704 185.218 191.728 185.357 191.722 185.497C191.717 185.637 191.682 185.774 191.62 185.9L186.86 197.28C186.775 197.473 186.635 197.638 186.457 197.751C186.279 197.865 186.071 197.924 185.86 197.92C185.726 197.922 185.592 197.895 185.47 197.84C185.329 197.795 185.199 197.719 185.091 197.618C184.983 197.517 184.898 197.393 184.844 197.255C184.789 197.117 184.766 196.969 184.775 196.821C184.785 196.673 184.828 196.529 184.9 196.4Z" fill="#747473"/>
<path d="M201.02 191.84C200.979 191.892 200.932 191.938 200.88 191.98L195.42 197.51C195.186 197.734 194.874 197.859 194.55 197.859C194.226 197.859 193.914 197.734 193.68 197.51C193.564 197.396 193.472 197.259 193.41 197.109C193.347 196.959 193.314 196.798 193.314 196.635C193.314 196.472 193.347 196.311 193.41 196.161C193.472 196.011 193.564 195.874 193.68 195.76L198.28 191.12L193.68 186.48C193.564 186.366 193.472 186.229 193.41 186.079C193.347 185.929 193.314 185.768 193.314 185.605C193.314 185.442 193.347 185.281 193.41 185.131C193.472 184.981 193.564 184.844 193.68 184.73C193.916 184.508 194.227 184.385 194.55 184.385C194.873 184.385 195.184 184.508 195.42 184.73L200.88 190.27C200.931 190.308 200.978 190.352 201.02 190.4C201.02 190.4 201.09 190.52 201.11 190.58C201.126 190.638 201.146 190.695 201.17 190.75C201.17 190.75 201.17 190.75 201.17 190.81V190.94C201.17 190.94 201.17 191.02 201.17 191.04C201.17 191.06 201.17 191.12 201.17 191.14V191.29C201.147 191.349 201.127 191.409 201.11 191.47C201.11 191.47 201.11 191.47 201.11 191.53C201.06 191.626 201.029 191.732 201.02 191.84Z" fill="#747473"/>
<path d="M113.53 382.13L47.96 435H51.65L127.39 382.13H113.53Z" fill="#C7C7C7"/>
<path d="M119.69 382.13L87.29 435H90.98L130.7 382.13H119.69Z" fill="#C7C7C7"/>
<path d="M135.58 382.13L167.98 435H164.29L124.57 382.13H135.58Z" fill="#C7C7C7"/>
<path d="M141.24 382.13L206.81 435H203.12L127.39 382.13H141.24Z" fill="#C7C7C7"/>
<path d="M250.68 362.73V347.26L160.63 343.57L113.07 216.57H4.09L42.65 362.73L134.77 388.59H140.55L250.68 362.73Z" fill="#2A3950"/>
<path opacity="0.1" d="M4.09 216.57H16.56L56.73 349.8L138.24 372.89L250.68 347.26V362.73L140.55 388.59H134.77L42.65 362.73L4.09 216.57Z" fill="black"/>
<path d="M57.53 379.28C58.12 376.94 94.8 320.53 97.53 319.28C97.8 319.18 116.8 330.77 116.8 330.77C117.62 331.72 151.52 321.99 151.52 321.99L154.83 363.48L92.04 366.63C92.04 366.63 83.93 372.21 76.47 376.82C73.3125 378.913 70.0297 380.809 66.64 382.5C63.55 383.52 56.92 381.65 57.53 379.28Z" fill="#F7A9A0"/>
<path d="M66.63 382.5C70.0197 380.809 73.3025 378.913 76.46 376.82C83.91 372.21 92.03 366.62 92.03 366.62L106.03 365.93L125.36 329.12C120.62 330.31 117.08 331.12 116.82 330.77C116.82 330.77 97.82 319.18 97.49 319.34C94.8 320.57 58.12 376.98 57.49 379.34C56.86 381.7 63.55 383.53 66.63 382.5Z" fill="#EDECEB"/>
<path d="M57.16 379.42C57.79 377.02 94.65 320.63 97.42 319.36C98.42 318.88 107.71 323.72 116.82 330.77L93.01 367.1C93.01 367.1 69.69 381.68 66.51 382.74C63.33 383.8 56.53 381.82 57.16 379.42Z" fill="#D3BDFF"/>
<path d="M59.94 380.09C66.36 370.78 91.34 332.66 96.94 322.98C96.99 322.9 96.94 322.87 96.88 322.98C90.32 332.06 65.65 370.39 59.76 379.98C59.66 380.19 59.8 380.28 59.94 380.09Z" fill="#00112D"/>
<path d="M70.91 380.43C71.6227 379.399 72.1142 378.231 72.3534 377C72.5926 375.77 72.5744 374.503 72.3 373.28C71.8187 371.071 70.5041 369.134 68.63 367.87C68.57 367.87 68.51 367.94 68.56 367.98C70.2202 369.525 71.3357 371.566 71.7395 373.797C72.1432 376.029 71.8136 378.331 70.8 380.36C70.7973 380.374 70.7988 380.388 70.8044 380.401C70.8099 380.414 70.8192 380.425 70.8311 380.433C70.843 380.44 70.8569 380.444 70.871 380.443C70.885 380.443 70.8986 380.438 70.91 380.43Z" fill="#00112D"/>
<path d="M90.13 369.45C92.65 365.7 94.13 360.45 92.63 356.07C92.57 355.9 92.33 355.98 92.31 356.14C91.8846 360.581 90.9827 364.962 89.62 369.21C89.607 369.274 89.6157 369.34 89.6448 369.398C89.674 369.456 89.7218 369.503 89.7806 369.531C89.8395 369.558 89.9059 369.565 89.9692 369.551C90.0326 369.536 90.0892 369.501 90.13 369.45Z" fill="#00112D"/>
<path d="M87.08 371.63C89.6 367.88 91.14 362.63 89.58 358.24C89.52 358.07 89.28 358.16 89.26 358.31C88.8346 362.754 87.9327 367.139 86.57 371.39C86.5569 371.454 86.5657 371.52 86.5948 371.578C86.624 371.636 86.6718 371.683 86.7306 371.711C86.7894 371.738 86.8559 371.745 86.9192 371.731C86.9826 371.716 87.0392 371.681 87.08 371.63Z" fill="#00112D"/>
<path d="M84.03 373.8C86.56 370.05 88.09 364.8 86.53 360.42C86.47 360.25 86.23 360.34 86.21 360.49C85.7846 364.931 84.8827 369.312 83.52 373.56C83.507 373.624 83.5157 373.69 83.5448 373.748C83.574 373.806 83.6218 373.853 83.6806 373.881C83.7394 373.908 83.8059 373.915 83.8692 373.901C83.9326 373.886 83.9892 373.851 84.03 373.8Z" fill="#00112D"/>
<path d="M80.98 375.98C83.51 372.23 85.04 366.98 83.48 362.6C83.42 362.43 83.18 362.51 83.17 362.67C82.7364 367.11 81.8312 371.492 80.47 375.74C80.457 375.804 80.4657 375.87 80.4948 375.928C80.524 375.986 80.5718 376.033 80.6306 376.061C80.6895 376.088 80.7559 376.095 80.8192 376.081C80.8826 376.066 80.9392 376.031 80.98 375.98Z" fill="#00112D"/>
<path d="M104.38 331.28C107.14 327.03 100.53 322.72 97.77 326.98C95.01 331.24 101.61 335.52 104.38 331.28Z" fill="#00112D"/>
<path d="M97.55 380.14C100.39 379.26 100.42 375.83 99.55 373.58C97.9701 369.73 95.4083 366.361 92.12 363.81C92.1053 363.798 92.0878 363.789 92.069 363.785C92.0502 363.78 92.0306 363.781 92.012 363.786C91.9934 363.791 91.9762 363.8 91.9619 363.813C91.9476 363.826 91.9367 363.842 91.93 363.86C91.8491 363.828 91.7619 363.816 91.6754 363.825C91.589 363.833 91.5058 363.862 91.4326 363.909C91.3594 363.956 91.2984 364.019 91.2545 364.094C91.2106 364.169 91.185 364.253 91.18 364.34C91.29 368.25 90.91 372.45 92.18 376.21C92.96 378.41 94.86 380.97 97.55 380.14ZM92.55 370.24C92.46 368.32 92.45 366.4 92.29 364.48C93.73 366.39 95.29 368.23 96.5 370.28C97.1144 371.261 97.6655 372.279 98.15 373.33C98.86 374.97 99.59 380.75 95.23 378.44C92.8 377.16 92.66 372.53 92.54 370.28L92.55 370.24Z" fill="#00112D"/>
<path d="M96.85 353.49C94.19 356.49 92.91 360.49 91.3 364.03C91.2698 364.112 91.2596 364.2 91.27 364.286C91.2805 364.373 91.3115 364.456 91.3603 364.528C91.4092 364.6 91.4745 364.66 91.551 364.702C91.6274 364.744 91.7128 364.767 91.8 364.77C91.7994 364.789 91.8032 364.807 91.811 364.824C91.8188 364.841 91.8304 364.856 91.845 364.868C91.8595 364.879 91.8766 364.887 91.8948 364.891C91.9131 364.895 91.932 364.895 91.95 364.89C95.9713 363.817 99.6403 361.706 102.59 358.77C104.28 357.03 105.59 353.86 103.31 351.95C101.03 350.04 98.41 351.76 96.85 353.49ZM100.5 352.62C105.42 352.18 102.5 357.22 101.2 358.46C100.35 359.243 99.4479 359.968 98.5 360.63C96.55 362.03 94.44 363.13 92.36 364.33C93.27 362.63 94.01 360.86 94.85 359.13C95.8 357.06 97.8 352.86 100.5 352.62Z" fill="#00112D"/>
<path d="M141.01 313.28C141.01 313.28 193.65 288.75 217.21 288.88C245.21 289.03 267.21 322.16 233.02 346.37C202.79 367.76 107.02 366.83 107.02 366.83L129.14 326.51C148.757 319.515 169.328 315.559 190.14 314.78L141.9 324.86L141.01 313.28Z" fill="#00112D"/>
<path d="M142.03 321.28C146.16 320.2 150.38 319.47 154.58 318.68C158.78 317.89 163.06 317.19 167.31 316.52C175.798 315.171 184.349 314.25 192.93 313.76L195.35 313.66C195.517 313.596 195.687 313.543 195.86 313.5C196.27 313.37 196.67 313.24 197.08 313.13C197.84 312.92 198.61 312.75 199.38 312.58C200.99 312.22 202.6 311.93 204.19 311.51C204.29 311.51 204.34 311.63 204.24 311.66C202.64 312.14 201.08 312.72 199.49 313.19L198.1 313.59C201.25 313.53 204.41 313.54 207.56 313.59C207.66 313.59 207.68 313.75 207.56 313.75C203.27 313.8 198.97 314.08 194.7 314.46C190.43 314.84 186.23 315.23 182.01 315.77C173.48 316.88 165.01 318.26 156.49 319.77C151.74 320.62 146.98 321.55 142.18 322.1C141.74 322.1 141.56 321.35 142.03 321.28Z" fill="#00112D"/>
<path d="M116.8 364.89C118.15 362.33 119.27 359.62 120.5 356.99C121.73 354.36 122.95 351.72 124.18 349.08C126.64 343.82 135.53 326.08 136.45 324.84C136.465 324.826 136.483 324.816 136.503 324.812C136.524 324.809 136.544 324.812 136.563 324.821C136.582 324.829 136.597 324.844 136.607 324.861C136.617 324.879 136.622 324.9 136.62 324.92C136.23 326.27 130.73 337.98 129.45 340.6C126.91 345.82 124.21 350.96 121.55 356.14C120.79 357.61 120 359.07 119.23 360.54C118.46 362.01 117.63 363.46 116.93 364.96C116.86 365.06 116.72 364.98 116.8 364.89Z" fill="#00112D"/>
<path d="M241.53 378.02C240.83 375.71 201.53 321.11 198.75 320.02C198.44 319.88 179.99 332.36 179.99 332.36C179.21 333.36 144.89 325.24 144.89 325.24L143.56 366.85L206.43 366.99C206.43 366.99 214.8 372.18 222.43 376.43C225.688 378.364 229.061 380.098 232.53 381.62C235.71 382.5 242.25 380.28 241.53 378.02Z" fill="#F7A9A0"/>
<path d="M232.59 381.62C229.122 380.098 225.752 378.362 222.5 376.42C214.84 372.18 206.5 366.98 206.5 366.98H192.5L171.44 331.14C176.23 332.14 179.8 332.7 180.05 332.38C180.05 332.38 198.49 319.9 198.81 320.04C201.56 321.14 240.88 375.74 241.59 378.04C242.3 380.34 235.72 382.51 232.59 381.62Z" fill="#EDECEB"/>
<path d="M241.9 378.1C241.16 375.73 201.65 321.16 198.82 320.03C197.76 319.6 188.75 324.87 179.99 332.35L205.5 367.51C205.5 367.51 229.5 380.95 232.72 381.86C235.94 382.77 242.64 380.47 241.9 378.1Z" fill="#D3BDFF"/>
<path d="M239.15 378.9C232.3 369.9 205.53 333.02 199.44 323.62C199.44 323.55 199.44 323.51 199.5 323.62C206.5 332.38 232.96 369.48 239.3 378.83C239.44 378.99 239.3 379.09 239.15 378.9Z" fill="#00112D"/>
<path d="M228.22 379.77C227.456 378.773 226.907 377.627 226.61 376.407C226.312 375.186 226.271 373.917 226.49 372.68C226.858 370.45 228.077 368.45 229.89 367.1C229.95 367.1 230.02 367.16 229.97 367.21C228.383 368.83 227.365 370.922 227.069 373.171C226.773 375.42 227.216 377.704 228.33 379.68C228.38 379.76 228.27 379.84 228.22 379.77Z" fill="#00112D"/>
<path d="M208.5 369.71C205.79 366.09 204.01 360.91 205.36 356.46C205.41 356.29 205.66 356.37 205.68 356.52C206.322 360.935 207.432 365.269 208.99 369.45C209.013 369.514 209.013 369.583 208.988 369.646C208.964 369.71 208.918 369.762 208.858 369.793C208.799 369.825 208.729 369.834 208.663 369.819C208.598 369.803 208.54 369.765 208.5 369.71Z" fill="#00112D"/>
<path d="M211.65 371.74C208.94 368.12 207.16 362.93 208.51 358.49C208.51 358.32 208.81 358.4 208.83 358.55C209.472 362.965 210.582 367.299 212.14 371.48C212.163 371.544 212.163 371.613 212.138 371.676C212.114 371.739 212.068 371.792 212.008 371.823C211.948 371.855 211.879 371.864 211.813 371.849C211.748 371.833 211.69 371.795 211.65 371.74Z" fill="#00112D"/>
<path d="M214.8 373.77C212.1 370.14 210.32 364.96 211.67 360.52C211.67 360.35 211.96 360.42 211.99 360.57C212.626 364.99 213.736 369.328 215.3 373.51C215.316 373.573 215.309 373.64 215.283 373.699C215.256 373.758 215.21 373.806 215.152 373.836C215.095 373.866 215.028 373.876 214.965 373.864C214.901 373.852 214.843 373.819 214.8 373.77Z" fill="#00112D"/>
<path d="M217.94 375.8C215.24 372.17 213.46 366.99 214.81 362.55C214.86 362.38 215.1 362.45 215.12 362.6C215.764 367.016 216.877 371.35 218.44 375.53C218.459 375.594 218.456 375.663 218.43 375.724C218.405 375.786 218.359 375.837 218.3 375.869C218.241 375.901 218.173 375.911 218.108 375.899C218.042 375.886 217.983 375.851 217.94 375.8Z" fill="#00112D"/>
<path d="M192.44 332.28C189.44 328.17 195.87 323.56 198.84 327.68C201.81 331.8 195.41 336.37 192.44 332.28Z" fill="#00112D"/>
<path d="M206.8 376.56C207.92 372.74 207.34 368.56 207.26 364.66C207.25 364.573 207.22 364.49 207.172 364.416C207.124 364.343 207.059 364.282 206.983 364.238C206.908 364.195 206.823 364.169 206.735 364.164C206.648 364.159 206.56 364.175 206.48 364.21C206.48 364.15 206.37 364.11 206.3 364.21C203.119 366.903 200.705 370.386 199.3 374.31C198.53 376.61 198.72 380.03 201.6 380.77C204.31 381.44 206.09 378.8 206.8 376.56ZM203.8 378.93C199.55 381.45 200.01 375.64 200.64 373.93C201.071 372.855 201.572 371.809 202.14 370.8C203.29 368.69 204.72 366.8 206.07 364.8C206 366.73 206.07 368.64 206.07 370.57C206.11 372.91 206.18 377.54 203.8 378.93Z" fill="#00112D"/>
<path d="M194.5 352.86C192.31 354.86 193.77 357.98 195.5 359.64C198.584 362.429 202.346 364.36 206.41 365.24C206.428 365.245 206.447 365.245 206.465 365.241C206.483 365.237 206.5 365.229 206.515 365.218C206.53 365.206 206.541 365.191 206.549 365.174C206.557 365.157 206.561 365.139 206.56 365.12C206.647 365.114 206.732 365.087 206.806 365.042C206.881 364.997 206.944 364.935 206.99 364.861C207.036 364.786 207.063 364.702 207.07 364.615C207.077 364.528 207.064 364.441 207.03 364.36C205.25 360.87 203.77 356.93 200.98 354.1C199.38 352.44 196.56 350.96 194.5 352.86ZM203.29 359.63C204.21 361.32 205.04 363.05 206.02 364.71C203.89 363.61 201.73 362.61 199.71 361.3C198.735 360.694 197.799 360.026 196.91 359.3C195.56 358.13 192.4 353.23 197.33 353.43C200.05 353.51 202.19 357.61 203.29 359.63Z" fill="#00112D"/>
<path d="M143.29 312.43C143.29 312.43 90.04 296.43 61.64 299.79C33.8 303.11 22.39 338 49.53 356.91C79.16 377.56 190.72 370.34 190.72 370.34L166.9 327.69C166.9 327.69 128.9 318.75 94.26 319.1L142.95 326.91L143.29 312.43Z" fill="#00112D"/>
<path d="M168.49 330.44C168.463 330.369 168.446 330.295 168.44 330.22C168.44 330.16 168.44 330.1 168.44 330.05C168.44 330 168.38 329.77 168.34 329.64C168.267 329.358 168.176 329.081 168.07 328.81C167.97 328.53 167.86 328.26 167.74 328C167.609 327.738 167.462 327.484 167.3 327.24H167.23H167.17C167.147 327.234 167.123 327.234 167.1 327.24C162.92 326.36 134.49 321.6 130.26 321.02C126.03 320.44 121.72 319.93 117.44 319.47C108.894 318.527 100.307 318.013 91.71 317.93H89.3C89.1263 317.873 88.9493 317.826 88.77 317.79C88.36 317.68 87.96 317.57 87.54 317.48C86.77 317.31 85.99 317.18 85.21 317.04C83.6 316.75 81.97 316.54 80.36 316.2C80.26 316.2 80.22 316.33 80.36 316.35C81.98 316.75 83.56 317.26 85.18 317.65L86.58 317.99C83.43 318.08 80.28 318.25 77.13 318.46C77.03 318.46 77.02 318.62 77.13 318.61C81.41 318.46 85.72 318.53 90 318.71C94.28 318.89 98.5 319.07 102.74 319.42C111.32 320.11 119.88 321.08 128.42 322.18C133.21 322.8 162.19 327.73 167.01 328.04C167.01 328.04 167.01 328.04 167.07 328.04C167.105 328.153 167.148 328.264 167.2 328.37C167.32 328.63 167.45 328.9 167.58 329.16C167.71 329.42 167.85 329.65 168 329.89C168.15 330.13 168.15 330.13 168.23 330.25L168.34 330.42C168.34 330.47 168.45 330.55 168.46 330.61C168.47 330.67 168.54 330.54 168.49 330.44Z" fill="#00112D"/>
<path d="M181.8 367.57C180.32 365.07 179.07 362.42 177.73 359.85C176.39 357.28 175.03 354.7 173.67 352.13C170.97 346.99 161.23 329.71 160.26 328.5C160.2 328.42 160.07 328.5 160.1 328.59C160.54 329.92 166.6 341.35 168 343.91C170.79 349.01 173.74 354.01 176.64 359.05C177.46 360.49 178.32 361.91 179.16 363.34C180 364.77 180.9 366.18 181.67 367.65C181.74 367.74 181.88 367.66 181.8 367.57Z" fill="#00112D"/>
<path d="M129.12 196.85C120.55 202.06 115.83 212.85 115.83 212.85C115.83 212.85 106.45 222.65 106.83 229.26C106.895 231.135 107.414 232.966 108.343 234.596C109.271 236.226 110.581 237.607 112.16 238.62L112.33 235.04C112.33 235.04 113.49 239.97 120.48 243.54C127.47 247.11 137.83 247.19 143.56 245.85C146.953 245.065 150.084 243.415 152.65 241.06L149.54 245.57C149.54 245.57 156.8 247.06 162.92 240.44C169.04 233.82 159.43 219.83 158.97 217.21C158.51 214.59 161.35 196.98 142.45 195.57C142.43 195.6 135.02 193.28 129.12 196.85Z" fill="#00112D"/>
<path d="M109.62 237.57C107.82 235.917 106.567 233.754 106.03 231.37C105.397 229.021 105.573 226.527 106.53 224.29C107.71 221.61 109.78 219.5 111.8 217.44C113.82 215.38 116.13 213.33 118.17 211.17C118.28 211.05 118.1 210.88 117.98 210.97C115.887 212.472 113.883 214.094 111.98 215.83C110.114 217.375 108.436 219.133 106.98 221.07C105.614 222.853 104.791 224.992 104.61 227.23C104.545 229.07 104.925 230.899 105.72 232.56C106.749 234.427 108.013 236.154 109.48 237.7C109.57 237.8 109.72 237.65 109.62 237.57Z" fill="#00112D"/>
<path d="M166.34 232.95C165.7 226.07 160.96 220.65 158.82 214.26C157.66 210.8 157.01 207.12 155.19 203.92C155.19 203.83 154.99 203.92 155.03 204C156.48 206.84 156.96 209.94 157.77 213C158.666 216.047 159.869 218.996 161.36 221.8C163.92 227 167 233.15 164.71 238.99C163.65 241.69 161.26 244.39 158.18 244.56C158.06 244.56 158.09 244.77 158.18 244.75C159.418 244.57 160.607 244.139 161.673 243.484C162.739 242.829 163.66 241.963 164.38 240.94C165.984 238.604 166.681 235.763 166.34 232.95Z" fill="#00112D"/>
<path d="M166.2 234.73C166.973 232.365 166.997 229.819 166.27 227.44C165.39 225.143 164.026 223.062 162.27 221.34C160.36 219.28 158.27 217.26 157.44 214.52C157.44 214.4 157.24 214.47 157.27 214.59C158.61 219.09 162.52 221.99 164.66 226.03C167.11 230.65 165.77 236.19 162.41 239.98C160.289 242.268 157.663 244.028 154.74 245.12C154.74 245.12 154.74 245.21 154.74 245.2C159.73 243.41 164.56 239.99 166.2 234.73Z" fill="#00112D"/>
<path d="M125.34 252.48C132.34 272.31 144.86 295.61 149.45 299.09C155.25 303.5 186.72 307.09 188.45 307.09C192.77 307.03 196 278.09 191.38 277.97C184.38 277.77 164.96 278.11 163.27 276.74C161.58 275.37 149.35 263.12 136.68 249.24C127.95 239.63 120.98 240.18 125.34 252.48Z" fill="#EB9481"/>
<path d="M186.8 307.08C190.76 308.563 194.82 309.763 198.95 310.67C202.23 311.22 211.69 312.56 212.65 309.02C213.32 306.6 207.85 305.16 204 304.02C202 303.43 199.36 301.68 199.78 300.38C200.53 298.09 205.78 299.7 209.25 301.22C216 304.17 225.25 309.82 228.69 306.16C230.01 304.78 228.06 302.76 225.33 300.88C229.65 302.94 234.19 304.52 235.71 303.04C236.104 302.663 236.339 302.148 236.365 301.603C236.391 301.058 236.207 300.523 235.85 300.11C236.385 300.287 236.959 300.302 237.502 300.152C238.045 300.003 238.531 299.696 238.9 299.27C240.06 297.74 239.19 295.8 237.51 293.89C237.753 293.834 237.979 293.722 238.17 293.562C238.362 293.402 238.512 293.199 238.61 292.97C240.9 288.42 225.61 277.88 220.69 277.3C210.931 276.326 201.09 276.531 191.38 277.91C186.36 283.02 186.8 307.07 186.8 307.08Z" fill="#EB9481"/>
<path d="M206.08 291.69C209.504 291.822 212.86 292.689 215.92 294.23C219.77 296.18 222.47 298.67 225.79 301.11C225.88 301.17 225.79 301.31 225.69 301.25C224.11 300.09 217.61 295.79 215.94 294.84C212.931 293.072 209.559 292.012 206.08 291.74C206.08 291.74 206.05 291.68 206.08 291.69Z" fill="#00112D"/>
<path d="M208.02 285.39C211.895 285.85 215.714 286.698 219.42 287.92C223.42 289.41 226.72 292.2 229.97 294.92C231.92 296.53 233.84 298.18 235.71 299.92C235.79 299.99 235.71 300.13 235.62 300.06C232.287 297.28 228.9 294.613 225.46 292.06C222.263 289.651 218.619 287.9 214.74 286.91C212.53 286.34 210.27 285.91 208.02 285.56C207.98 285.45 207.98 285.38 208.02 285.39Z" fill="#00112D"/>
<path d="M211.39 279.69C215.08 280.02 218.3 280.29 221.71 281.85C225.567 283.825 229.164 286.271 232.42 289.13C234.19 290.63 235.92 292.2 237.62 293.79C237.69 293.85 237.62 293.97 237.51 293.91C233.635 290.44 229.539 287.223 225.25 284.28C223.228 282.851 220.999 281.742 218.64 280.99C216.261 280.357 213.832 279.932 211.38 279.72C211.38 279.72 211.37 279.69 211.39 279.69Z" fill="#00112D"/>
<path d="M191.3 275.78L184.55 310.7C184.55 310.7 154.81 305.79 148.89 300.7C142.97 295.61 129.89 267.44 125.39 253.57C120.89 239.7 128.12 239.28 135.8 247.44C143.48 255.6 162.37 275.44 163.34 275.81C164.31 276.18 191.3 275.78 191.3 275.78Z" fill="#D3BDFF"/>
<path d="M178.69 297.2C178.432 297.415 178.127 297.566 177.8 297.64C177.507 297.702 177.202 297.689 176.915 297.602C176.629 297.514 176.369 297.355 176.16 297.14C175.829 296.818 175.408 296.604 174.953 296.525C174.498 296.447 174.03 296.508 173.61 296.7C173.22 296.879 172.89 297.167 172.66 297.53C172.45 297.85 172.21 298.15 172.02 298.53C172.36 298.33 172.66 298.1 173.02 297.89C173.274 297.669 173.575 297.508 173.9 297.42C174.189 297.345 174.492 297.345 174.781 297.42C175.07 297.496 175.334 297.644 175.55 297.85C175.87 298.178 176.281 298.403 176.73 298.495C177.179 298.588 177.646 298.544 178.07 298.37C178.478 298.213 178.827 297.933 179.07 297.57C179.28 297.25 179.52 296.95 179.71 296.57C179.31 296.76 179.01 296.99 178.69 297.2ZM148.96 282.28C148.704 282.496 148.398 282.643 148.07 282.71C147.777 282.775 147.472 282.764 147.184 282.676C146.897 282.588 146.637 282.428 146.43 282.21C146.099 281.888 145.678 281.674 145.223 281.595C144.768 281.517 144.3 281.578 143.88 281.77C143.471 281.941 143.123 282.23 142.88 282.6C142.67 282.92 142.43 283.22 142.24 283.6C142.58 283.41 142.88 283.17 143.24 282.96C143.493 282.737 143.794 282.576 144.12 282.49C144.409 282.415 144.712 282.415 145.001 282.49C145.29 282.566 145.554 282.714 145.77 282.92C146.091 283.247 146.501 283.472 146.95 283.567C147.398 283.661 147.865 283.62 148.29 283.45C148.695 283.283 149.042 283.001 149.29 282.64C149.5 282.32 149.74 282.02 149.93 281.64C149.58 281.83 149.28 282.06 148.96 282.28ZM125.8 245.75C125.546 245.965 125.244 246.115 124.92 246.19C124.635 246.265 124.335 246.265 124.05 246.19C124.025 246.486 124.025 246.784 124.05 247.08C124.452 247.119 124.857 247.046 125.22 246.869C125.584 246.693 125.892 246.42 126.11 246.08C126.33 245.76 126.56 245.46 126.75 245.08C126.39 245.28 126.09 245.54 125.8 245.75ZM174.29 280.43C173.959 280.4 173.64 280.29 173.36 280.11C173.107 279.947 172.899 279.721 172.758 279.455C172.616 279.189 172.544 278.891 172.55 278.59C172.54 278.13 172.393 277.683 172.127 277.307C171.862 276.931 171.49 276.643 171.06 276.48C170.66 276.333 170.227 276.302 169.81 276.39C169.43 276.47 169.05 276.52 168.67 276.62C169.05 276.73 169.43 276.77 169.81 276.85C170.162 276.861 170.506 276.961 170.81 277.14C171.067 277.292 171.28 277.506 171.431 277.763C171.581 278.021 171.664 278.312 171.67 278.61C171.667 279.067 171.799 279.516 172.05 279.898C172.301 280.281 172.659 280.581 173.08 280.76C173.477 280.929 173.916 280.974 174.34 280.89C174.72 280.81 175.1 280.76 175.48 280.66C175.02 280.55 174.64 280.51 174.26 280.43H174.29ZM145.91 262.81C145.58 262.776 145.262 262.666 144.98 262.49C144.725 262.328 144.517 262.103 144.375 261.837C144.233 261.57 144.162 261.272 144.17 260.97C144.159 260.509 144.012 260.061 143.747 259.684C143.482 259.306 143.11 259.016 142.68 258.85C142.275 258.711 141.84 258.683 141.42 258.77C141.05 258.85 140.67 258.89 140.29 259C140.67 259.1 141.05 259.15 141.42 259.23C141.771 259.244 142.113 259.34 142.42 259.51C142.675 259.665 142.887 259.882 143.035 260.141C143.184 260.4 143.265 260.692 143.27 260.99C143.27 261.448 143.405 261.896 143.657 262.278C143.91 262.66 144.269 262.96 144.69 263.14C145.089 263.302 145.527 263.344 145.95 263.26C146.33 263.204 146.708 263.127 147.08 263.03C146.64 262.93 146.26 262.88 145.88 262.81H145.91ZM151.8 301.39C151.399 301.246 150.966 301.218 150.55 301.31L149.86 301.43L149.41 301.53C149.72 301.62 150.04 301.66 150.35 301.73C150.417 301.725 150.483 301.725 150.55 301.73C150.884 301.755 151.209 301.854 151.5 302.02C151.723 302.154 151.914 302.335 152.06 302.55C152.43 302.72 152.83 302.89 153.24 303.06C153.16 302.683 152.986 302.332 152.734 302.04C152.483 301.748 152.161 301.525 151.8 301.39Z" fill="#EDECEB"/>
<path d="M180.06 296.05C180.89 291.93 181.75 287.81 182.43 283.66C182.82 281.3 183.22 278.94 183.58 276.58C183.58 276.49 183.44 276.45 183.42 276.58C182.42 280.69 181.42 284.8 180.62 288.95C179.82 293.1 178.98 297.2 178.23 301.34C177.797 303.693 177.44 306.053 177.16 308.42C177.16 308.42 177.23 308.49 177.24 308.42C178.38 304.33 179.22 300.2 180.06 296.05Z" fill="#00112D"/>
<path opacity="0.1" d="M185.22 307.22L184.55 310.7C184.55 310.7 154.8 305.79 148.89 300.7C142.98 295.61 129.89 267.44 125.39 253.57C122.1 243.42 125.08 240.44 129.9 242.77C143.8 258.7 170.08 288.87 185.22 307.22Z" fill="black"/>
<path d="M85.22 311.5L154.48 312.66L151.03 290.51C151.03 290.51 156.65 285.64 153.37 276.37C151.23 270.31 141.51 256.11 136.6 250.21C124.6 235.82 116.33 243.85 113.01 247.55C100.34 261.69 85.22 311.5 85.22 311.5Z" fill="#D3BDFF"/>
<path d="M152.85 302.2C152.591 301.829 152.225 301.546 151.8 301.39C151.399 301.246 150.966 301.218 150.55 301.31C150.17 301.38 149.79 301.43 149.41 301.53C149.79 301.64 150.17 301.68 150.55 301.76C150.884 301.785 151.209 301.884 151.5 302.05C151.757 302.201 151.97 302.416 152.121 302.673C152.271 302.931 152.354 303.222 152.36 303.52C152.357 303.9 152.447 304.275 152.621 304.613C152.795 304.951 153.049 305.242 153.36 305.46L152.85 302.2ZM104.54 261.91C104.408 261.895 104.277 261.868 104.15 261.83C104.05 262.01 103.96 262.2 103.87 262.39C104.092 262.421 104.318 262.421 104.54 262.39C104.921 262.334 105.298 262.257 105.67 262.16C105.3 262.03 104.92 261.98 104.54 261.91ZM127.18 293.57C126.85 293.536 126.532 293.426 126.25 293.25C125.995 293.088 125.787 292.863 125.645 292.597C125.503 292.33 125.432 292.032 125.44 291.73C125.429 291.269 125.282 290.821 125.017 290.444C124.752 290.066 124.38 289.776 123.95 289.61C123.545 289.471 123.11 289.443 122.69 289.53C122.32 289.61 121.94 289.65 121.56 289.76C121.94 289.86 122.32 289.91 122.69 289.99C123.041 290.004 123.383 290.1 123.69 290.27C123.946 290.424 124.159 290.64 124.308 290.899C124.456 291.158 124.536 291.451 124.54 291.75C124.54 292.208 124.675 292.656 124.927 293.038C125.18 293.42 125.539 293.72 125.96 293.9C126.359 294.062 126.797 294.104 127.22 294.02C127.601 293.964 127.978 293.887 128.35 293.79C127.94 293.69 127.56 293.64 127.18 293.57ZM145.73 262.78C145.452 262.742 145.186 262.643 144.95 262.49C144.695 262.328 144.487 262.103 144.345 261.837C144.203 261.57 144.132 261.272 144.14 260.97C144.137 260.699 144.083 260.431 143.98 260.18C143.853 259.846 143.647 259.548 143.38 259.31C143.173 259.105 142.924 258.948 142.65 258.85C142.245 258.711 141.81 258.683 141.39 258.77C141.02 258.85 140.64 258.89 140.26 259C140.64 259.1 141.02 259.15 141.39 259.23C141.741 259.244 142.083 259.34 142.39 259.51C142.645 259.665 142.857 259.882 143.005 260.141C143.154 260.4 143.235 260.692 143.24 260.99C143.24 261.448 143.375 261.896 143.627 262.278C143.88 262.66 144.239 262.96 144.66 263.14C145.059 263.302 145.497 263.344 145.92 263.26H146.06C145.92 263.08 145.8 262.93 145.73 262.78ZM125.16 267.49C125.09 267.11 125.04 266.74 124.94 266.36C124.83 266.74 124.79 267.11 124.71 267.49C124.694 267.842 124.595 268.184 124.42 268.49C124.27 268.748 124.056 268.963 123.798 269.113C123.541 269.264 123.248 269.346 122.95 269.35C122.49 269.348 122.04 269.482 121.656 269.735C121.272 269.987 120.971 270.347 120.79 270.77C120.628 271.169 120.586 271.607 120.67 272.03C120.75 272.4 120.8 272.78 120.9 273.16C121.01 272.78 121.05 272.4 121.13 272.03C121.155 271.696 121.261 271.373 121.44 271.09C121.605 270.838 121.83 270.632 122.096 270.49C122.362 270.349 122.659 270.276 122.96 270.28C123.297 270.281 123.631 270.205 123.935 270.06C124.239 269.914 124.507 269.702 124.718 269.439C124.93 269.176 125.079 268.868 125.156 268.54C125.232 268.211 125.233 267.869 125.16 267.54V267.49ZM110.46 306.7C110.38 306.32 110.33 305.95 110.23 305.57C110.12 305.95 110.08 306.32 110 306.7C109.985 307.036 109.885 307.363 109.71 307.65C109.56 307.908 109.346 308.123 109.088 308.273C108.831 308.424 108.538 308.506 108.24 308.51C107.78 308.508 107.33 308.642 106.946 308.895C106.562 309.147 106.261 309.507 106.08 309.93C105.918 310.329 105.876 310.767 105.96 311.19C106.01 311.41 106.04 311.63 106.09 311.85H106.3C106.3 311.63 106.37 311.41 106.42 311.19C106.45 310.859 106.56 310.54 106.74 310.26C106.902 310.005 107.127 309.797 107.393 309.655C107.66 309.513 107.958 309.442 108.26 309.45C108.72 309.44 109.167 309.293 109.543 309.027C109.919 308.762 110.207 308.39 110.37 307.96C110.512 307.556 110.543 307.121 110.46 306.7ZM125.8 245.75C125.546 245.965 125.244 246.115 124.92 246.19C124.625 246.252 124.319 246.239 124.031 246.152C123.742 246.064 123.481 245.906 123.27 245.69C122.939 245.368 122.518 245.154 122.063 245.075C121.608 244.997 121.14 245.058 120.72 245.25C120.334 245.431 120.006 245.715 119.77 246.07C119.56 246.4 119.33 246.69 119.14 247.07C119.48 246.87 119.78 246.64 120.14 246.43C120.391 246.209 120.688 246.049 121.01 245.96C121.299 245.882 121.603 245.881 121.892 245.956C122.181 246.032 122.446 246.181 122.66 246.39C122.983 246.717 123.396 246.94 123.846 247.033C124.297 247.125 124.764 247.083 125.19 246.91C125.597 246.751 125.946 246.472 126.19 246.11C126.41 245.79 126.64 245.49 126.83 245.11C126.39 245.28 126.09 245.54 125.8 245.75ZM105.11 286.52C104.851 286.73 104.546 286.877 104.22 286.95C103.927 287.015 103.622 287.004 103.334 286.916C103.047 286.828 102.787 286.668 102.58 286.45C102.249 286.128 101.828 285.914 101.373 285.835C100.918 285.757 100.45 285.818 100.03 286.01C99.6397 286.189 99.3097 286.477 99.08 286.84C98.87 287.16 98.63 287.46 98.44 287.84C98.78 287.64 99.08 287.41 99.44 287.2C99.6954 286.981 99.9958 286.82 100.32 286.73C100.609 286.655 100.912 286.655 101.201 286.73C101.49 286.806 101.754 286.954 101.97 287.16C102.291 287.486 102.702 287.711 103.15 287.805C103.598 287.899 104.064 287.859 104.49 287.69C104.897 287.526 105.245 287.244 105.49 286.88C105.7 286.56 105.94 286.26 106.13 285.88C105.7 286.07 105.4 286.28 105.08 286.52H105.11ZM148.96 282.28C148.704 282.496 148.398 282.643 148.07 282.71C147.777 282.775 147.472 282.764 147.184 282.676C146.897 282.588 146.637 282.428 146.43 282.21C146.099 281.888 145.678 281.674 145.223 281.595C144.768 281.517 144.3 281.578 143.88 281.77C143.471 281.941 143.123 282.23 142.88 282.6C142.67 282.92 142.43 283.22 142.24 283.6C142.58 283.41 142.88 283.17 143.24 282.96C143.493 282.737 143.794 282.576 144.12 282.49C144.409 282.415 144.712 282.415 145.001 282.49C145.29 282.566 145.554 282.714 145.77 282.92C146.091 283.247 146.501 283.472 146.95 283.567C147.398 283.661 147.865 283.62 148.29 283.45C148.695 283.283 149.042 283.001 149.29 282.64C149.5 282.32 149.74 282.02 149.93 281.64C149.58 281.83 149.28 282.06 148.96 282.28ZM132.74 311.93C132.407 311.612 131.986 311.4 131.532 311.321C131.078 311.243 130.611 311.302 130.19 311.49C129.833 311.659 129.527 311.917 129.3 312.24H130.18L130.44 312.16C130.832 312.069 131.242 312.108 131.61 312.27H133.26C133.066 312.193 132.889 312.077 132.74 311.93ZM135.27 312C135.104 312.137 134.919 312.248 134.72 312.33H135.57C135.78 312.01 136.02 311.71 136.21 311.33C135.89 311.55 135.59 311.79 135.27 312Z" fill="#EDECEB"/>
<path d="M130.1 290.28C133.112 290.002 136.14 289.948 139.16 290.12C140.66 290.23 142.16 290.41 143.64 290.61C144.38 290.72 145.12 290.8 145.87 290.87C146.647 290.965 147.433 290.965 148.21 290.87C148.223 290.87 148.236 290.875 148.245 290.885C148.255 290.894 148.26 290.907 148.26 290.92C148.26 290.933 148.255 290.946 148.245 290.955C148.236 290.965 148.223 290.97 148.21 290.97C147.489 291.139 146.757 291.26 146.02 291.33C145.304 291.38 144.586 291.38 143.87 291.33C142.34 291.24 140.87 291.08 139.3 290.97C136.23 290.75 133.17 290.53 130.09 290.53C129.97 290.57 129.96 290.33 130.1 290.28Z" fill="#00112D"/>
<path d="M123.25 294.28C125.647 293.582 128.081 293.018 130.54 292.59C131.77 292.39 133 292.25 134.25 292.15C134.84 292.1 135.44 292.06 136.03 292.03C136.62 292 137.35 292.03 138.03 292.03C138.1 292.03 138.12 292.13 138.03 292.14C137.42 292.2 136.81 292.36 136.2 292.46L134.35 292.74C133.12 292.93 131.9 293.14 130.66 293.32C128.2 293.68 125.75 294.07 123.29 294.52C123.15 294.5 123.13 294.28 123.25 294.28Z" fill="#00112D"/>
<path d="M121.4 244.36C121.4 245.67 125.09 255.25 130.8 256.5C132.65 256.9 135.31 246.85 135.31 246.85L135.68 246.16L140.79 236.4L130.7 225.28L129.21 223.77C129.21 223.77 127.99 226.53 126.5 229.98C126.43 230.14 126.36 230.3 126.29 230.48C126.22 230.66 126.11 230.85 126.04 231.04C125.81 231.55 125.58 232.04 125.36 232.6C125.14 233.16 125.02 233.39 124.86 233.82L124.36 235.08C123.165 238.103 122.176 241.203 121.4 244.36Z" fill="#EB9481"/>
<path d="M126.5 230C126.766 233.198 127.724 236.301 129.31 239.091C130.895 241.882 133.069 244.294 135.68 246.16L140.79 236.4L130.7 225.28L129.21 223.77C129.21 223.77 127.99 226.55 126.5 230Z" fill="#00112D"/>
<path d="M159.7 223.42C157.53 242.63 145.78 243.5 141.64 243.02C137.88 242.6 125.13 240.66 125.3 221.33C125.47 202 135.09 196.93 143.74 197.46C152.39 197.99 161.87 204.21 159.7 223.42Z" fill="#EB9481"/>
<path d="M157.36 219.79C156.92 219.68 156.53 219.5 156.1 219.35C155.635 219.253 155.216 219.003 154.91 218.64C154.833 218.509 154.802 218.356 154.822 218.206C154.842 218.056 154.912 217.916 155.02 217.81C155.266 217.631 155.555 217.522 155.857 217.492C156.159 217.462 156.464 217.513 156.74 217.64C157.339 217.812 157.852 218.201 158.18 218.73C158.249 218.855 158.28 218.997 158.269 219.139C158.258 219.281 158.205 219.417 158.118 219.529C158.031 219.642 157.913 219.727 157.778 219.773C157.643 219.819 157.498 219.825 157.36 219.79Z" fill="#00112D"/>
<path d="M144.23 217.39C144.675 217.382 145.119 217.349 145.56 217.29C146.033 217.324 146.504 217.201 146.9 216.94C147.011 216.833 147.082 216.692 147.102 216.539C147.122 216.387 147.089 216.232 147.01 216.1C146.82 215.864 146.571 215.682 146.288 215.574C146.006 215.465 145.699 215.432 145.4 215.48C144.777 215.49 144.179 215.728 143.72 216.15C143.62 216.252 143.553 216.381 143.526 216.521C143.498 216.661 143.513 216.806 143.567 216.938C143.621 217.07 143.713 217.183 143.831 217.263C143.949 217.344 144.087 217.388 144.23 217.39Z" fill="#00112D"/>
<path d="M146.63 223.09C146.63 223.04 146.52 223.14 146.52 223.19C146.41 224.5 146.07 225.99 144.84 226.29V226.37C146.31 226.33 146.74 224.35 146.63 223.09Z" fill="#00112D"/>
<path d="M145.61 221.59C143.53 221.2 142.89 225.4 144.83 225.76C146.77 226.12 147.36 221.92 145.61 221.59Z" fill="#00112D"/>
<path d="M144.8 221.69C144.39 221.87 143.97 222.24 143.52 222.21C143.07 222.18 142.68 221.69 142.41 221.21C142.41 221.16 142.34 221.21 142.33 221.21C142.2 222.01 142.33 222.89 143.23 223.14C144.13 223.39 144.67 222.74 145 221.96C145.02 221.86 144.92 221.61 144.8 221.69Z" fill="#00112D"/>
<path d="M153.91 223.91C153.91 223.91 154 223.99 153.99 224.04C153.74 225.33 153.67 226.86 154.78 227.47C154.78 227.47 154.78 227.56 154.78 227.55C153.36 227.12 153.46 225.09 153.91 223.91Z" fill="#00112D"/>
<path d="M155.28 222.74C157.4 222.91 156.9 227.13 154.94 226.97C152.98 226.81 153.51 222.59 155.28 222.74Z" fill="#00112D"/>
<path d="M156.13 223.12C156.44 223.38 156.72 223.83 157.13 223.9C157.54 223.97 157.99 223.57 158.33 223.17C158.33 223.17 158.4 223.17 158.39 223.22C158.32 224.03 157.95 224.84 157.16 224.9C156.37 224.96 156 224.2 155.9 223.38C155.87 223.28 156.01 223.01 156.13 223.12Z" fill="#00112D"/>
<path d="M150.97 229.8C150.97 229.8 150.97 231.8 150.84 232.7C150.84 232.78 150.6 232.79 150.29 232.77C149.483 232.801 148.683 232.61 147.977 232.216C147.271 231.823 146.688 231.243 146.29 230.54C146.24 230.45 146.37 230.37 146.44 230.44C147.501 231.401 148.845 231.994 150.27 232.13C150.37 231.89 150.16 228.73 150.27 228.74C150.968 228.907 151.641 229.166 152.27 229.51C152.39 225.37 151.85 221.25 152.04 217.14C152.048 217.113 152.064 217.089 152.087 217.072C152.109 217.055 152.137 217.046 152.165 217.046C152.193 217.046 152.221 217.055 152.243 217.072C152.266 217.089 152.282 217.113 152.29 217.14C153.002 221.539 153.274 225.997 153.1 230.45C153.11 230.96 151.32 230 150.97 229.8Z" fill="#00112D"/>
<path d="M150.21 232.28C149.603 232.972 148.828 233.496 147.96 233.8C147.482 233.955 146.968 233.955 146.49 233.8C145.49 233.46 145.49 232.48 145.74 231.66C145.876 231.226 146.064 230.809 146.3 230.42C147.374 231.438 148.743 232.089 150.21 232.28Z" fill="#00112D"/>
<path d="M147.96 233.83C147.482 233.985 146.968 233.985 146.49 233.83C145.49 233.49 145.49 232.51 145.74 231.69C146.295 231.749 146.815 231.991 147.217 232.379C147.619 232.767 147.881 233.277 147.96 233.83Z" fill="#FF9BBC"/>
<path d="M125.35 223.68C126.685 223.299 127.898 222.576 128.87 221.584C129.841 220.591 130.537 219.363 130.89 218.02C134.499 217.139 137.806 215.309 140.47 212.72C140.27 213.09 138.85 215.78 138.08 217.13C150.63 216.98 156.02 208.34 156.02 208.34C157.972 210.881 159.322 213.832 159.97 216.97C159.97 216.97 161.36 209.52 158.4 203.86C157.459 201.908 156.016 200.24 154.218 199.03C152.42 197.819 150.333 197.108 148.17 196.97C145.294 195.718 142.134 195.265 139.022 195.66C135.91 196.054 132.963 197.28 130.49 199.21C121.09 206.43 125.35 223.68 125.35 223.68Z" fill="#00112D"/>
<path d="M147.67 216.73C145.532 217.456 143.297 217.861 141.04 217.93C144.618 217.593 148.032 216.267 150.9 214.1C152.114 213.168 153.209 212.089 154.16 210.89C155.251 209.616 156.077 208.137 156.59 206.54C156.59 206.516 156.599 206.493 156.616 206.476C156.633 206.46 156.656 206.45 156.68 206.45C156.704 206.45 156.727 206.46 156.744 206.476C156.761 206.493 156.77 206.516 156.77 206.54C156.436 208.174 155.827 209.739 154.97 211.17C154.063 212.551 152.911 213.755 151.57 214.72C150.37 215.567 149.057 216.24 147.67 216.72V216.73Z" fill="#00112D"/>
<path d="M142.86 229.49C141.809 229.257 140.844 228.735 140.074 227.982C139.305 227.228 138.762 226.275 138.508 225.228C138.253 224.182 138.296 223.086 138.633 222.063C138.97 221.04 139.587 220.133 140.414 219.443C141.241 218.753 142.244 218.309 143.311 218.161C144.377 218.013 145.464 218.166 146.447 218.604C147.431 219.042 148.272 219.747 148.875 220.639C149.479 221.531 149.82 222.574 149.86 223.65C149.893 224.409 149.776 225.166 149.516 225.879C149.255 226.592 148.855 227.247 148.34 227.804C147.825 228.362 147.205 228.812 146.515 229.129C145.825 229.446 145.079 229.623 144.32 229.65C143.828 229.661 143.338 229.607 142.86 229.49ZM145.14 218.98C144.732 218.897 144.316 218.861 143.9 218.87C142.629 218.916 141.423 219.445 140.528 220.349C139.633 221.253 139.116 222.465 139.083 223.736C139.05 225.008 139.503 226.245 140.35 227.194C141.196 228.144 142.373 228.735 143.64 228.847C144.907 228.96 146.169 228.585 147.17 227.799C148.17 227.013 148.834 225.876 149.025 224.618C149.216 223.361 148.921 222.077 148.199 221.03C147.477 219.982 146.383 219.249 145.14 218.98Z" fill="#EDECEB"/>
<path d="M156.02 230.69C153.87 230.22 152.39 227.6 152.68 224.61C152.794 223.178 153.353 221.818 154.28 220.72C154.648 220.223 155.138 219.83 155.702 219.579C156.267 219.327 156.887 219.227 157.502 219.286C158.117 219.345 158.706 219.563 159.213 219.918C159.719 220.272 160.124 220.752 160.39 221.31C161.091 222.563 161.378 224.005 161.21 225.43C160.91 228.59 158.74 230.98 156.39 230.75C156.265 230.74 156.142 230.72 156.02 230.69ZM157.72 220.1C157.624 220.09 157.526 220.09 157.43 220.1C156.939 220.069 156.447 220.16 155.999 220.364C155.551 220.568 155.159 220.879 154.86 221.27C154.04 222.244 153.547 223.451 153.45 224.72C153.18 227.46 154.53 229.84 156.45 230.02C158.37 230.2 160.16 228.14 160.45 225.4C160.595 224.135 160.344 222.856 159.73 221.74C159.53 221.34 159.247 220.988 158.9 220.705C158.554 220.422 158.152 220.216 157.72 220.1Z" fill="#EDECEB"/>
<path d="M149.58 224.28L149.14 223.64C150.08 223 152.14 222.21 153.44 223.84L152.83 224.31C151.71 222.87 149.66 224.28 149.58 224.28Z" fill="#EDECEB"/>
<path d="M123.9 223.28L123.26 222.86C123.45 222.56 125.21 219.91 126.95 219.8C128.69 219.69 138.75 221.66 139.18 221.74L139.03 222.5C136.12 221.93 128.25 220.5 127.03 220.57C125.81 220.64 124.37 222.57 123.9 223.28Z" fill="#EDECEB"/>
<path d="M124.15 227.85C124.413 228.016 124.695 228.15 124.99 228.25C125.273 228.368 125.574 228.439 125.88 228.46C126.272 228.498 126.668 228.45 127.04 228.32C127.334 228.222 127.613 228.084 127.87 227.91C128.233 227.662 128.548 227.35 128.8 226.99V221.72C128.8 221.72 125.85 214.97 122.88 215.91C119.91 216.85 121.24 226.04 124.15 227.85Z" fill="#EB9481"/>
<path d="M123.3 218.53C123.25 218.53 123.23 218.58 123.3 218.61C125.3 219.95 126.08 222.24 126.47 224.52C126.384 224.275 126.245 224.051 126.065 223.864C125.884 223.677 125.666 223.532 125.424 223.437C125.182 223.342 124.922 223.3 124.663 223.315C124.403 223.329 124.15 223.399 123.92 223.52C123.85 223.52 123.92 223.65 123.92 223.65C124.328 223.609 124.739 223.695 125.096 223.895C125.454 224.095 125.742 224.401 125.92 224.77C126.223 225.409 126.454 226.08 126.61 226.77C126.67 226.98 127.05 226.95 127.02 226.71V226.65C127.67 223.81 126.27 219.42 123.3 218.53Z" fill="#00112D"/>
<path d="M110.94 248.79C99.5 258.79 70.17 298.29 77.37 306.74C84.57 315.19 129.84 309.33 142.86 304.66C146.73 303.27 135 278.82 130.71 277.85C127.14 277.03 107.8 283.64 107.37 282.52C106.94 281.4 110.71 272.68 116.77 257.06C123.8 239.06 116 244.36 110.94 248.79Z" fill="#EB9481"/>
<path d="M149.8 272.28C158.91 271.93 161.3 273.28 168.8 268.86C173.74 265.99 177.7 267.91 174.54 272.95C169.37 281.18 157.71 284.1 153.38 283.95L149.8 272.28Z" fill="#EB9481"/>
<path d="M125.09 278.5C125.09 278.5 135.74 273.91 145.41 272.58C152.1 271.66 166.87 271.27 179.41 287.06C182.41 290.81 183.95 298.25 176.88 293.89C171.88 290.8 169.61 287.32 166.36 286.05C166.36 286.05 167.24 295.75 163.36 298.58C159.971 301.06 156.412 303.299 152.71 305.28C152.197 304.682 151.719 304.054 151.28 303.4C151.28 303.4 147.42 305.7 140.71 304.4L125.09 278.5Z" fill="#EB9481"/>
<path d="M151.93 272.72C154.93 274.66 161.09 278.88 164.93 284.09C169.23 289.88 175.93 302.2 171.65 305.33C168.49 307.63 165.51 303.15 165.51 303.15C165.51 303.15 167.21 308.82 163.91 310.27C160.91 311.59 158.79 307.99 158.79 307.99C158.79 307.99 159.24 311.61 156.09 312.33C152.3 313.19 152 305.46 147.41 303.01C146.41 302.46 151.93 272.72 151.93 272.72Z" fill="#EB9481"/>
<path d="M158.08 287.61C162.097 291.857 164.721 297.23 165.6 303.01C165.6 303.16 165.51 303.25 165.47 303.12C163.629 297.683 161.131 292.491 158.03 287.66C158.03 287.66 158.06 287.59 158.08 287.61Z" fill="#00112D"/>
<path d="M152.36 292.13C154.3 294.31 158.44 301.34 158.95 307.94C158.95 308.09 158.85 308.18 158.81 308.04C157.246 302.52 155.066 297.193 152.31 292.16C152.31 292.16 152.34 292.1 152.36 292.13Z" fill="#00112D"/>
<path d="M166.34 285.99C169.18 287.15 170.94 288.77 173.24 290.74C174.365 291.724 175.544 292.645 176.77 293.5C177.9 294.27 179.56 295.42 180.93 294.5C181.256 294.214 181.5 293.847 181.637 293.436C181.775 293.025 181.8 292.584 181.71 292.16C181.473 290.936 181.041 289.757 180.43 288.67C180.43 288.67 180.48 288.59 180.51 288.67C181.101 289.665 181.59 290.717 181.97 291.81C182.205 292.562 182.205 293.368 181.97 294.12C181.38 295.69 179.46 295.71 178.15 295.12C177.376 294.749 176.642 294.3 175.96 293.78C175.29 293.3 174.65 292.78 174.01 292.26C172.72 291.18 171.48 290.03 170.2 288.93C168.949 287.897 167.633 286.945 166.26 286.08C166.248 286.069 166.241 286.054 166.24 286.039C166.239 286.023 166.244 286.007 166.255 285.995C166.266 285.983 166.281 285.976 166.296 285.975C166.312 285.974 166.328 285.979 166.34 285.99Z" fill="#00112D"/>
<path d="M125.09 278.5L136.26 309.71C136.26 309.71 79.63 316.59 75.82 306.47C72.01 296.35 97.3 260.78 108.1 250.77C120.6 239.16 121.6 243.64 118 254.67C114.22 266.23 107.5 282.81 107.5 282.81L125.09 278.5Z" fill="#D3BDFF"/>
<path d="M104.54 261.91C104.21 261.876 103.892 261.766 103.61 261.59C103.357 261.427 103.149 261.201 103.008 260.935C102.866 260.669 102.794 260.371 102.8 260.07C102.79 259.63 102.655 259.201 102.411 258.834C102.167 258.468 101.823 258.178 101.42 258L100.94 258.57H101.01C101.267 258.724 101.48 258.94 101.631 259.199C101.781 259.458 101.864 259.751 101.87 260.05C101.867 260.507 101.999 260.956 102.25 261.338C102.501 261.721 102.859 262.021 103.28 262.2C103.679 262.362 104.117 262.404 104.54 262.32C104.921 262.264 105.298 262.187 105.67 262.09C105.3 262.03 104.92 261.98 104.54 261.91ZM127.18 293.57C126.85 293.536 126.532 293.426 126.25 293.25C125.995 293.088 125.787 292.863 125.645 292.597C125.503 292.33 125.432 292.032 125.44 291.73C125.429 291.269 125.282 290.821 125.017 290.444C124.752 290.066 124.38 289.776 123.95 289.61C123.545 289.471 123.11 289.443 122.69 289.53C122.32 289.61 121.94 289.65 121.56 289.76C121.94 289.86 122.32 289.91 122.69 289.99C123.041 290.004 123.383 290.1 123.69 290.27C123.946 290.424 124.159 290.64 124.308 290.899C124.456 291.158 124.536 291.451 124.54 291.75C124.54 292.208 124.675 292.656 124.927 293.038C125.18 293.42 125.539 293.72 125.96 293.9C126.359 294.062 126.797 294.104 127.22 294.02C127.601 293.964 127.978 293.887 128.35 293.79C127.94 293.69 127.56 293.64 127.18 293.57ZM86.56 300.28C86.2287 300.25 85.9096 300.14 85.63 299.96C85.3754 299.798 85.167 299.573 85.0251 299.307C84.8831 299.04 84.8125 298.742 84.82 298.44C84.8154 298.103 84.7363 297.772 84.5884 297.469C84.4405 297.167 84.2274 296.901 83.9645 296.691C83.7016 296.48 83.3954 296.331 83.0678 296.253C82.7402 296.175 82.3995 296.171 82.07 296.24C81.69 296.32 81.32 296.36 80.94 296.47C81.32 296.58 81.69 296.62 82.07 296.7C82.4231 296.707 82.7681 296.807 83.07 296.99C83.328 297.14 83.5427 297.354 83.6934 297.612C83.8441 297.869 83.9256 298.162 83.93 298.46C83.929 298.918 84.0632 299.367 84.3158 299.749C84.5683 300.132 84.9281 300.431 85.35 300.61C85.7481 300.777 86.1875 300.819 86.61 300.73C86.99 300.66 87.36 300.61 87.74 300.51C87.351 300.412 86.9571 300.336 86.56 300.28ZM110.46 306.73C110.38 306.35 110.33 305.98 110.23 305.6C110.12 305.98 110.08 306.35 110 306.73C109.985 307.066 109.885 307.393 109.71 307.68C109.56 307.938 109.346 308.153 109.088 308.303C108.831 308.454 108.538 308.536 108.24 308.54C107.78 308.538 107.33 308.672 106.946 308.925C106.562 309.177 106.261 309.537 106.08 309.96C105.918 310.359 105.876 310.797 105.96 311.22C106.01 311.46 106.05 311.7 106.1 311.95H106.29C106.29 311.71 106.37 311.47 106.42 311.23C106.45 310.899 106.56 310.58 106.74 310.3C106.902 310.045 107.127 309.837 107.393 309.695C107.66 309.553 107.958 309.482 108.26 309.49C108.72 309.48 109.167 309.333 109.543 309.067C109.919 308.802 110.207 308.43 110.37 308C110.519 307.583 110.55 307.133 110.46 306.7V306.73ZM119.8 245.99L119.74 246.07C119.53 246.4 119.3 246.69 119.11 247.07C119.36 246.92 119.59 246.76 119.82 246.6C119.8 246.37 119.8 246.17 119.8 245.99ZM105.08 286.52C104.821 286.73 104.516 286.877 104.19 286.95C103.897 287.015 103.592 287.004 103.304 286.916C103.017 286.828 102.757 286.668 102.55 286.45C102.219 286.128 101.798 285.914 101.343 285.835C100.888 285.757 100.42 285.818 100 286.01C99.6097 286.189 99.2797 286.477 99.05 286.84C98.84 287.16 98.6 287.46 98.41 287.84C98.75 287.64 99.05 287.41 99.41 287.2C99.6654 286.981 99.9658 286.82 100.29 286.73C100.579 286.655 100.882 286.655 101.171 286.73C101.46 286.806 101.724 286.954 101.94 287.16C102.261 287.486 102.672 287.711 103.12 287.805C103.568 287.899 104.034 287.859 104.46 287.69C104.867 287.526 105.215 287.244 105.46 286.88C105.67 286.56 105.91 286.26 106.1 285.88C105.7 286.07 105.4 286.28 105.08 286.52Z" fill="#EDECEB"/>
<path d="M124.95 278.4C124.66 278.45 109.02 281.93 108.5 282.11C108.58 281.89 112.11 274.11 112.63 272.97C112.69 272.86 112.73 272.74 112.78 272.63C113.11 272.13 113.44 271.63 113.78 271.12C114.12 270.61 114.57 269.81 114.96 269.12L113.7 271.03C113.51 271.33 113.32 271.63 113.14 271.94C113.49 271.13 113.83 270.32 114.14 269.51C114.68 268.21 115.14 266.9 115.68 265.59C115.68 265.54 115.68 265.52 115.61 265.59C114.61 267.86 113.46 270.09 112.42 272.36C111.38 274.63 107.42 282.95 107.42 282.95C107.42 282.95 124.69 278.74 125.03 278.63C125.045 278.625 125.059 278.617 125.071 278.606C125.083 278.595 125.093 278.582 125.1 278.568C125.107 278.554 125.111 278.538 125.112 278.522C125.112 278.506 125.11 278.49 125.105 278.475C125.1 278.46 125.092 278.446 125.081 278.434C125.07 278.422 125.057 278.412 125.043 278.405C125.029 278.398 125.013 278.394 124.997 278.393C124.981 278.392 124.965 278.395 124.95 278.4Z" fill="#00112D"/>
<path d="M124.02 297.93C122.8 294.45 121.6 290.93 120.24 287.53C119.47 285.53 118.72 283.62 117.93 281.67C117.93 281.6 117.77 281.67 117.79 281.72C118.88 285.26 119.98 288.81 121.24 292.3C122.5 295.79 123.7 299.3 124.99 302.72C125.73 304.68 126.523 306.62 127.37 308.54C127.37 308.54 127.46 308.54 127.44 308.54C126.47 304.93 125.25 301.44 124.02 297.93Z" fill="#00112D"/>
<path d="M136.92 310.28C136.46 309.28 135.92 307.92 135.39 306.97C135.26 306.72 135.07 306.75 135.17 306.97C135.51 307.84 135.77 308.81 136.1 309.71C135.3 309.78 134.51 309.84 133.72 309.93L130.97 310.22C129.17 310.41 127.38 310.58 125.58 310.73C121.933 311.03 118.283 311.253 114.63 311.4C107.299 311.739 99.9558 311.692 92.63 311.26C90.63 311.13 88.54 310.96 86.51 310.73C84.48 310.5 82.2 310.22 80.51 309.84C80.51 309.84 80.44 309.91 80.51 309.93C82.1991 310.467 83.9278 310.872 85.68 311.14C87.52 311.41 89.37 311.64 91.22 311.8C94.9 312.13 98.6 312.26 102.3 312.29C109.633 312.35 116.967 312.103 124.3 311.55C126.353 311.403 128.4 311.227 130.44 311.02C131.44 310.91 132.51 310.81 133.54 310.69C134.57 310.57 137 310.41 136.92 310.28Z" fill="#00112D"/>
<path d="M209.87 314.88H138.58V318.07H209.87V314.88Z" fill="#C7C7C7"/>
<path d="M209.87 314.88V318.07H161.41L163.86 314.88H209.87Z" fill="#A6A6A6"/>
<path d="M171.21 318.07H233.61L242.63 274.05H180.24L171.21 318.07Z" fill="#A6A6A6"/>
<path d="M174.13 318.07H236.52L245.55 274.05H183.16L174.13 318.07Z" fill="#C7C7C7"/>
<path d="M215.46 294.42C215.516 295.4 215.241 296.371 214.678 297.176C214.116 297.982 213.3 298.575 212.36 298.86C210.57 299.23 209.08 297.86 209.01 295.77C208.958 294.789 209.236 293.819 209.8 293.014C210.364 292.21 211.18 291.617 212.12 291.33C213.9 290.96 215.4 292.34 215.46 294.42Z" fill="#EDECEB"/>
</svg>
